<svg width="270" height="36" viewBox="0 0 270 36" fill="none" xmlns="http://www.w3.org/2000/svg">
<g clip-path="url(#clip0_165_54553)">
<path d="M33.0379 16.9478L27.7661 26.8516H38.3062L33.0379 16.9478Z" fill="#070E2C"/>
<path opacity="0.5" d="M23.1795 26.9095L13.716 26.8723L7.49924 15.2167L12.258 6.08545L23.1795 26.9095Z" fill="#070E2C"/>
<path d="M28.4985 0L35.7818 3.84226L23.1795 26.9094L13.716 26.8619L28.4985 0Z" fill="#070E2C"/>
<path d="M12.2546 6.08203L16.7636 14.7051L10.0069 26.8621H0.590637L12.2546 6.08203Z" fill="#070E2C"/>
<path d="M38.3063 30.189H0V35.9998H38.3063V30.189Z" fill="#070E2C"/>
<path d="M230.29 5.18715H220.128V1.1416H245.224V5.18715H235.059V35.2781H230.29V5.18715Z" fill="#070E2C"/>
<path d="M249.659 1.1416H269.48V5.18716H254.428V15.379H263.486L262.389 19.4245H254.428V31.2359H270V35.2815H249.659V1.1416Z" fill="#070E2C"/>
<path d="M49.2075 0.646973H60.9221C68.0265 0.646973 73.5446 2.60537 73.5446 9.16838C73.5446 12.2517 71.8268 15.5315 69.0356 16.5852V16.7953C72.5321 17.7067 75.2321 20.292 75.2321 24.883C75.2321 31.8729 69.3428 35.0071 61.8975 35.0071H49.2041V0.646973H49.2075ZM60.5644 14.41C64.3174 14.41 65.9813 12.8175 65.9813 10.317C65.9813 7.67078 64.2263 6.64076 60.6218 6.64076H56.9464V14.41H60.5644ZM61.2698 29.0167C65.4885 29.0167 67.6688 27.5089 67.6688 24.3849C67.6688 21.261 65.5256 20.1429 61.2698 20.1429H56.9464V29.0167H61.2698Z" fill="#070E2C"/>
<path d="M108.314 30.6772L112.759 25.3475C115.192 27.4753 118.351 28.9391 121.166 28.9391C124.396 28.9391 125.975 27.6617 125.975 25.622C125.975 23.4569 124.031 22.7657 121.041 21.529L116.593 19.6248C113.046 18.1746 109.684 15.2506 109.684 10.2563C109.684 4.5641 114.753 0.0170898 121.875 0.0170898C125.817 0.0170898 129.938 1.57568 132.887 4.52005L128.979 9.41606C126.725 7.68128 124.581 6.7258 121.875 6.7258C119.168 6.7258 117.507 7.84053 117.507 9.8057C117.507 11.9132 119.745 12.6789 122.735 13.875L127.096 15.647C131.274 17.3445 133.886 20.1398 133.886 24.9952C133.886 30.7009 129.148 35.6444 120.99 35.6444C116.535 35.6444 111.804 33.9503 108.311 30.6772H108.314Z" fill="#070E2C"/>
<path d="M137.626 0.646973H159.597V7.16255H145.361V14.061H154.119L152.661 20.5766H145.361V28.4949H159.597V35.0105H137.626V0.646973Z" fill="#070E2C"/>
<path d="M96.6128 0.646973H87.3518L76.6024 35.0105H84.5134L86.6295 26.8245H93.9499L92.3501 20.7866H88.1888L89.0089 17.6051C89.9606 14.1694 90.8753 10.151 91.7021 6.52217H91.9114C92.826 10.1069 93.7406 14.1694 94.6924 17.6051L95.0873 19.1467H95.0974L98.064 30.7142L99.171 35.0105H107.362L96.6128 0.646973Z" fill="#070E2C"/>
<path d="M183.023 20.5562C187.495 19.3398 190.441 16.1685 190.441 10.8862C190.441 3.64215 185.345 1.14502 178.382 1.14502H167.525V35.2781H172.294V5.00761H177.761C182.888 5.00761 185.703 6.53909 185.703 10.8828C185.703 15.2265 182.888 17.2629 177.761 17.2629H175.216V21.1288H178.19L186.148 35.2747H191.538L183.026 20.5528L183.023 20.5562Z" fill="#070E2C"/>
<path d="M210.212 1.1416H204.761L193.367 35.2747H198.224L201.332 25.1744H210.337L209.233 21.3761H202.5L204.019 16.4429C205.203 12.6785 206.27 8.9176 207.293 5.00419H207.498C208.565 8.89388 216.55 35.2713 216.55 35.2713H221.599L210.212 1.1416Z" fill="#070E2C"/>
</g>
<defs>
<clipPath id="clip0_165_54553">
<rect width="270" height="36" fill="white"/>
</clipPath>
</defs>
</svg>
