<svg width="51" height="37" viewBox="0 0 51 37" fill="none" xmlns="http://www.w3.org/2000/svg">
<path d="M25.36 2.39622C23.8957 1.02505 21.3264 0 17.2794 0H0V33.6137H17.2794C20.4744 33.6137 23.1635 34.8917 24.5214 36.2629C24.9074 36.6489 25.5198 36.5824 25.9058 36.2096C27.3968 34.7452 30.2457 33.6137 33.4539 33.6137H50.7334V0H33.4539C29.407 0 26.8377 1.01174 25.3733 2.39622H25.36ZM23.7626 31.7233C22.1118 30.8847 19.902 30.432 17.2794 30.432H3.19497V3.19497H17.2794C21.5394 3.19497 23.7626 4.53951 23.7626 5.87075V31.71V31.7233ZM45.2221 26.3851H29.1407V23.5229H45.2221V26.3851ZM38.4328 15.9881L41.0287 10.5434L38.5526 9.31865L45.5682 4.88563L46.2871 13.1526L43.5847 11.8081L39.2981 20.6208L34.5189 16.7336L31.0577 21.6858L28.6748 20.1017L33.9731 12.6068L38.4195 15.9881H38.4328Z" fill="#277FA0"/>
<path d="M19.1843 15.5215H6.69727V18.7165H19.1843V15.5215Z" fill="#277FA0"/>
<path d="M19.1843 8.09375H6.69727V11.2887H19.1843V8.09375Z" fill="#277FA0"/>
<path d="M19.1843 22.9512H6.69727V26.1461H19.1843V22.9512Z" fill="#277FA0"/>
</svg>
