<svg width="100" height="100" viewBox="0 0 100 100" fill="none" xmlns="http://www.w3.org/2000/svg">


<path d="M40.1162 29.7607C45.0615 29.7607 48.2016 31.0091 49.9912 32.6787H50.0078C51.7974 30.9927 54.9374 29.7608 59.8828 29.7607H81V70.6963H59.8828C55.9621 70.6963 52.4803 72.0751 50.6582 73.8584C50.1864 74.3119 49.4384 74.3928 48.9668 73.9229C47.3074 72.253 44.0207 70.6963 40.1162 70.6963H19V29.7607H40.1162ZM22.9043 66.8223H40.1162C43.321 66.8223 46.0218 67.3733 48.0391 68.3945V36.9102C48.0388 35.289 45.3219 33.6514 40.1162 33.6514H22.9043V66.8223ZM54.6123 61.8936H74.2646V58.4082H54.6123V61.8936ZM42.4453 57.7109V61.6016H27.1855V57.7109H42.4453ZM66.1143 41.1094L69.1396 42.6006L65.9678 49.2314H65.9512L60.5176 45.1143L54.043 54.2412L56.9551 56.1709L61.1846 50.1396L67.0244 54.873L72.2637 44.1406L75.5654 45.7783L74.6875 35.7109L66.1143 41.1094ZM42.4453 52.5547H27.1855V48.6641H42.4453V52.5547ZM42.4453 43.5088H27.1855V39.6182H42.4453V43.5088Z" fill="#070E2C"/>
</svg>
