<svg width="271" height="40" viewBox="0 0 271 40" fill="none" xmlns="http://www.w3.org/2000/svg">
<g clip-path="url(#clip0_224_53374)">
<path d="M66.8904 22.0479C66.8904 23.2801 66.5054 24.2606 65.7487 25.0026C64.9921 25.7445 63.9567 26.1023 62.6691 26.1023H60.9434V31.1238H62.6691C64.6602 31.1238 66.3727 30.7396 67.8461 29.9579C69.3063 29.1761 70.4347 28.1029 71.2311 26.6985C72.0276 25.3073 72.4126 23.6776 72.4126 21.836V1.19336H66.9036V22.0479H66.8904Z" fill="#2E2E32"/>
<path d="M93.3724 10.2691C91.6335 9.27538 89.6821 8.78516 87.5316 8.78516C85.3812 8.78516 83.4033 9.28863 81.651 10.2691C79.9121 11.2628 78.5182 12.6142 77.4828 14.3234C76.4474 16.0326 75.9297 17.9935 75.9297 20.1929C75.9297 22.3923 76.4474 24.34 77.4828 26.0624C78.5182 27.7716 79.9121 29.123 81.6643 30.1167C83.4165 31.1104 85.3679 31.6007 87.5184 31.6007C89.6688 31.6007 91.5671 31.0972 93.3194 30.1167C95.0583 29.123 96.4654 27.7716 97.5008 26.0624C98.5495 24.3532 99.0672 22.3923 99.0672 20.1929C99.0672 17.9935 98.5495 16.0061 97.5141 14.3102C96.4787 12.6142 95.0981 11.2628 93.3459 10.2691H93.3724ZM92.7884 23.5848C92.2707 24.5917 91.5538 25.3734 90.6512 25.9432C89.7485 26.4996 88.7131 26.7911 87.5316 26.7911C86.3502 26.7911 85.2617 26.5129 84.3458 25.9432C83.4298 25.3734 82.713 24.5917 82.1953 23.5848C81.6776 22.5778 81.4121 21.4516 81.4121 20.1929C81.4121 18.9342 81.6776 17.7815 82.1953 16.8011C82.713 15.8206 83.4298 15.0521 84.3458 14.4692C85.2617 13.8994 86.3237 13.6079 87.5316 13.6079C88.7396 13.6079 89.7485 13.8994 90.6512 14.4692C91.5538 15.0521 92.2574 15.8206 92.7884 16.8011C93.3061 17.7815 93.5716 18.9077 93.5716 20.1929C93.5716 21.4781 93.3061 22.5778 92.7884 23.5848Z" fill="#2E2E32"/>
<path d="M116.761 22.0872C116.761 23.0544 116.575 23.8891 116.204 24.578C115.832 25.267 115.301 25.8235 114.637 26.2077C113.974 26.592 113.204 26.7907 112.341 26.7907C111.478 26.7907 110.708 26.592 110.031 26.2077C109.341 25.8235 108.823 25.2803 108.465 24.6045C108.106 23.9288 107.92 23.1206 107.92 22.2197V9.26172H102.65V22.6436C102.65 24.4323 102.982 26.009 103.633 27.3472C104.296 28.6854 105.239 29.7321 106.487 30.4873C107.735 31.2293 109.208 31.6135 110.894 31.6135C112.447 31.6135 113.814 31.2823 114.982 30.6065C115.859 30.1031 116.549 29.4141 117.053 28.5396V31.1365H122.045V9.26172H116.775V22.0739L116.761 22.0872Z" fill="#2E2E32"/>
<path d="M133.886 9.99022C133.05 10.4805 132.386 11.2754 131.895 12.3619V9.2615H126.943V31.123H132.213V18.9468C132.213 17.2907 132.665 15.9922 133.581 15.0648C134.497 14.1373 135.705 13.6736 137.205 13.6736H139.09V9.00977H137.802C136.275 9.00977 134.961 9.32775 133.873 9.97697L133.886 9.99022Z" fill="#2E2E32"/>
<path d="M157.434 9.83186C156.187 9.12964 154.753 8.78516 153.147 8.78516C151.541 8.78516 150.226 9.12964 149.058 9.80536C148.155 10.3353 147.452 11.0508 146.947 11.965V9.26213H141.996V31.1237H147.266V18.3115C147.266 17.3443 147.452 16.5228 147.824 15.8206C148.195 15.1184 148.726 14.5884 149.39 14.1909C150.054 13.8067 150.824 13.6079 151.687 13.6079C152.549 13.6079 153.346 13.8067 153.996 14.1909C154.647 14.5752 155.164 15.1184 155.549 15.8206C155.921 16.5228 156.107 17.3443 156.107 18.3115V31.1237H161.377V17.066C161.377 15.4364 161.032 13.9922 160.328 12.7467C159.625 11.5013 158.656 10.5341 157.408 9.83186H157.434Z" fill="#2E2E32"/>
<path d="M179.992 9.76561C178.625 9.10314 177.045 8.78516 175.24 8.78516C173.766 8.78516 172.399 9.02365 171.138 9.51387C169.877 9.99085 168.788 10.6533 167.859 11.5013C166.93 12.3493 166.253 13.343 165.828 14.4957L170.129 16.5891C170.527 15.5954 171.164 14.8004 172.041 14.2042C172.917 13.5947 173.912 13.3032 175.041 13.3032C176.249 13.3032 177.218 13.6212 177.961 14.2439C178.704 14.8666 179.063 15.6616 179.063 16.5891V17.2913L172.545 18.3512C170.833 18.6162 169.399 19.08 168.284 19.7159C167.156 20.3651 166.319 21.1601 165.788 22.1008C165.257 23.0415 164.979 24.128 164.979 25.3337C164.979 26.5394 165.284 27.6921 165.908 28.646C166.518 29.6 167.394 30.3287 168.523 30.8322C169.651 31.3357 170.979 31.6007 172.505 31.6007C173.713 31.6007 174.815 31.4284 175.811 31.0972C176.806 30.7659 177.696 30.2757 178.465 29.653C178.784 29.4013 179.076 29.0965 179.355 28.7918V31.1237H184.346V16.5758C184.346 15.0256 183.961 13.6609 183.204 12.495C182.435 11.329 181.373 10.4148 180.005 9.76561H179.992ZM178.359 24.9362C177.895 25.7709 177.231 26.4201 176.381 26.8839C175.532 27.3608 174.563 27.5861 173.461 27.5861C172.598 27.5861 171.881 27.3608 171.31 26.9236C170.74 26.4864 170.448 25.8902 170.448 25.1349C170.448 24.3797 170.7 23.7305 171.218 23.2403C171.722 22.7633 172.505 22.4188 173.554 22.2333L179.063 21.3059V22.2068C179.063 23.2005 178.824 24.1147 178.359 24.9362V24.9362Z" fill="#2E2E32"/>
<path d="M194.473 0.703125H189.203V31.1105H194.473V0.703125Z" fill="#2E2E32"/>
<path d="M208.69 24.3396L203.021 9.26172H197.34L206.008 31.1233L205.517 32.276C205.092 33.1902 204.601 33.9189 204.043 34.4886C203.499 35.0583 202.61 35.3366 201.402 35.3366C200.977 35.3366 200.512 35.2968 200.008 35.2173C199.504 35.1378 199.092 35.0583 198.734 34.9788V39.3909C199.185 39.6029 199.703 39.7619 200.26 39.8546C200.818 39.9474 201.402 40.0004 201.986 40.0004C203.353 40.0004 204.574 39.7354 205.623 39.2187C206.685 38.7019 207.614 37.9467 208.424 36.953C209.234 35.9593 209.911 34.7536 210.482 33.3359L220.026 9.27497H214.305L208.663 24.3528L208.69 24.3396Z" fill="#2E2E32"/>
<path d="M234.935 26.7371C234.072 26.7371 233.368 26.6046 232.824 26.3396C232.266 26.0746 231.868 25.6771 231.616 25.1736C231.364 24.6702 231.231 24.0474 231.231 23.3187V13.9646H236.262V9.26108H231.231V4.2793H225.961V5.96197C225.961 7.03518 225.669 7.84339 225.072 8.41312C224.474 8.96959 223.651 9.26108 222.576 9.26108H222.178V13.9646H225.961V23.6102C225.961 26.0746 226.638 27.9825 227.992 29.3339C229.346 30.6854 231.258 31.3611 233.727 31.3611C234.125 31.3611 234.576 31.3346 235.054 31.2816C235.532 31.2286 235.97 31.1756 236.342 31.1226V26.6178C236.103 26.6443 235.851 26.6708 235.598 26.6973C235.346 26.7238 235.12 26.7371 234.935 26.7371V26.7371Z" fill="#2E2E32"/>
<path d="M245.633 9.26172H240.363V31.11H245.633V9.26172Z" fill="#2E2E32"/>
<path d="M245.633 1.19336H240.363V6.82436H245.633V1.19336Z" fill="#2E2E32"/>
<path d="M264.35 25.7701C263.408 26.4458 262.306 26.777 261.045 26.777C259.89 26.777 258.868 26.4988 257.965 25.9291C257.063 25.3593 256.359 24.5909 255.855 23.5972C255.35 22.6035 255.085 21.464 255.085 20.1788C255.085 18.8936 255.337 17.7542 255.855 16.7605C256.359 15.7668 257.063 14.9983 257.965 14.4286C258.868 13.8721 259.89 13.5806 261.045 13.5806C262.28 13.5806 263.368 13.9118 264.324 14.5876C265.28 15.25 265.957 16.1377 266.355 17.2374L270.988 15.2235C270.563 13.9118 269.859 12.7856 268.877 11.8317C267.895 10.8777 266.74 10.1358 265.399 9.57928C264.058 9.0228 262.611 8.75781 261.058 8.75781C258.881 8.75781 256.93 9.26129 255.204 10.2417C253.479 11.2222 252.111 12.5869 251.116 14.2961C250.12 16.0052 249.629 17.9529 249.629 20.1258C249.629 22.2987 250.12 24.2464 251.116 25.9688C252.111 27.6912 253.465 29.0559 255.204 30.0629C256.943 31.0698 258.881 31.5733 261.058 31.5733C262.638 31.5733 264.098 31.2951 265.439 30.7518C266.78 30.2086 267.935 29.4402 268.904 28.4597C269.873 27.4792 270.563 26.3795 271.001 25.1473L266.368 23.0539C265.97 24.1801 265.293 25.0811 264.35 25.7436V25.7701Z" fill="#2E2E32"/>
<path d="M25.288 2.3849C23.8278 1.02021 21.2658 0 17.2304 0H0V33.4548H17.2304C20.4163 33.4548 23.0977 34.7267 24.4517 36.0914C24.8367 36.4757 25.4473 36.4094 25.8323 36.0384C27.319 34.581 30.1598 33.4548 33.359 33.4548H50.5893V0H33.359C29.3235 0 26.7615 1.00696 25.3013 2.3849H25.288ZM23.6951 31.5734C22.049 30.7387 19.8455 30.2882 17.2304 30.2882H3.18589V3.17986H17.2304C21.4782 3.17986 23.6951 4.51805 23.6951 5.84299V31.5601V31.5734ZM45.0937 26.2603H29.058V23.4117H45.0937V26.2603ZM38.3236 15.9126L40.9122 10.4935L38.4431 9.27459L45.4388 4.86254L46.1556 13.0904L43.4609 11.7522L39.1865 20.5234L34.4209 16.6545L30.9695 21.5833L28.5934 20.0066L33.8767 12.5472L38.3104 15.9126H38.3236Z" fill="#277FA0"/>
<path d="M19.1312 15.4492H6.67969V18.6291H19.1312V15.4492Z" fill="#277FA0"/>
<path d="M19.1312 8.05469H6.67969V11.2345H19.1312V8.05469Z" fill="#277FA0"/>
<path d="M19.1312 22.8418H6.67969V26.0217H19.1312V22.8418Z" fill="#277FA0"/>
</g>
<defs>
<clipPath id="clip0_224_53374">
<rect width="271" height="40" fill="white"/>
</clipPath>
</defs>
</svg>
