<?xml version="1.0" encoding="UTF-8"?>
<svg width="40px" height="40px" viewBox="0 0 40 40" version="1.1" xmlns="http://www.w3.org/2000/svg" xmlns:xlink="http://www.w3.org/1999/xlink">
    <!-- Generator: Sketch 60 (88103) - https://sketch.com -->
    <title>icon / Flavor / Old Bay</title>
    <desc>Created with Sketch.</desc>
    <defs>
        <circle id="path-1" cx="20" cy="20" r="20"></circle>
        <path d="M32.9871202,27.4468621 L31.963158,22.3427351 C31.9205862,22.1309967 31.7775601,21.9536145 31.5792655,21.8680976 C31.3817177,21.7814603 31.1539215,21.7986384 30.9701909,21.9114162 L26.542357,24.6487041 C26.2831922,24.8089082 26.1678004,25.1259556 26.2630266,25.4149953 C26.357506,25.7047818 26.6383301,25.8907531 26.9419338,25.8664798 L28.6821468,25.7253208 C27.0446288,27.9782619 24.5519416,28.9234291 21.6846979,29.190436 L21.5211328,15.6780179 L23.7016272,15.6619601 C23.934278,15.8315002 24.2199568,15.9334483 24.5302823,15.9300873 C25.2976939,15.9214983 25.9134903,15.2926316 25.9049013,14.5248466 C25.8963122,13.7566882 25.2666987,13.1416387 24.4989137,13.1502277 C24.1882147,13.1539621 23.9055234,13.262632 23.6758601,13.4374002 L21.4961126,13.453458 L21.4737064,10.3233151 C22.2836897,9.77174972 22.8128489,8.84039965 22.8012724,7.79029685 C22.782974,6.12290388 21.4113426,4.78152078 19.744323,4.8 C18.0769301,4.8188644 16.735547,6.19049584 16.7542188,7.85751538 C16.7657953,8.90799162 17.3162404,9.82739173 18.1381736,10.3606587 L18.1605798,13.4904282 L15.9804588,13.5064859 C15.747808,13.3369458 15.4625027,13.2342509 15.1518037,13.2379852 C14.3840187,13.2465743 13.7682223,13.875441 13.7768113,14.6435994 C13.7854004,15.4113844 14.4150139,16.0264339 15.1827989,16.0178449 C15.492751,16.0144839 15.7758157,15.9061874 16.0051056,15.7314192 L18.1852266,15.7153615 L18.3487917,29.2277797 C15.475573,29.0246303 12.9630937,28.1354786 11.2759086,25.9195077 L13.0183623,26.0218292 C13.3223394,26.0393808 13.5990557,25.8470611 13.6871866,25.5557808 C13.7760645,25.2645005 13.6535774,24.9496937 13.3906782,24.7954645 L8.90272108,22.1582575 C8.71637638,22.0488407 8.48858025,22.0376376 8.29289964,22.1276358 C8.0968456,22.2183808 7.95755387,22.3987505 7.9198368,22.6112357 L7.01014603,27.7366486 C6.95711808,28.0368914 7.1158285,28.3341467 7.39553227,28.4558869 C7.67448917,28.578374 8.00049904,28.4928571 8.18460312,28.2497501 L9.2096857,26.8967904 C11.2800164,30.1665985 14.5076261,32.8878286 18.203525,33.5618811 L19.6139938,34.9417281 C19.8750257,35.1960382 20.2917806,35.191557 20.5460907,34.9312719 L21.9259377,33.5204297 C25.6054054,32.7642212 28.7725184,29.9712913 30.7692822,26.6562975 L31.8238662,27.9857306 C32.0135719,28.2247298 32.3414489,28.302778 32.6177917,28.1743159 C32.894508,28.0462273 33.04687,27.7456111 32.9871202,27.4468621" id="path-3"></path>
    </defs>
    <g id="icon-/-Flavor-/-Old-Bay" stroke="none" stroke-width="1" fill="none" fill-rule="evenodd">
        <g id="New">
            <rect id="Rectangle-12" x="0" y="0" width="40" height="40"></rect>
            <g id="❇️--Inside-Color">
                <mask id="mask-2" fill="white">
                    <use xlink:href="#path-1"></use>
                </mask>
                <use id="Oval" fill="#006938" xlink:href="#path-1"></use>
            </g>
            <mask id="mask-4" fill="white">
                <use xlink:href="#path-3"></use>
            </mask>
            <use id="Fill-1" fill="#FFFFFF" xlink:href="#path-3"></use>
        </g>
    </g>
</svg>