<svg preserveAspectRatio="none" width="100%" height="100%" overflow="visible" style="display: block;" viewBox="0 0 18 17" fill="none" xmlns="http://www.w3.org/2000/svg">
<g id="Union">
<path d="M6 9H8V11H6V9Z" fill="var(--fill-0, #1B1B1D)"/>
<path d="M8 6H6V8H8V6Z" fill="var(--fill-0, #1B1B1D)"/>
<path d="M6 3H8V5H6V3Z" fill="var(--fill-0, #1B1B1D)"/>
<path d="M5 9H3V11H5V9Z" fill="var(--fill-0, #1B1B1D)"/>
<path d="M3 6H5V8H3V6Z" fill="var(--fill-0, #1B1B1D)"/>
<path d="M5 3H3V5H5V3Z" fill="var(--fill-0, #1B1B1D)"/>
<path fill-rule="evenodd" clip-rule="evenodd" d="M0 0H11V8H18V17H0V0ZM11 10V12H13V10H11ZM11 13V15H13V13H11ZM9 15V2L2 2V15H4V12H7V15L9 15ZM16 15H14V13H16V15ZM14 12H16V10H14V12Z" fill="var(--fill-0, #1B1B1D)"/>
</g>
</svg>
