<svg width="24" height="24" viewBox="0 0 24 24" fill="none" xmlns="http://www.w3.org/2000/svg">
<path fill-rule="evenodd" clip-rule="evenodd" d="M15 4C16.7343 4 18.3459 4.23256 19.5586 4.63672C20.1597 4.83709 20.7186 5.09854 21.1475 5.43652C21.5621 5.76337 21.9931 6.27912 21.999 6.98535C21.9991 6.99023 22 6.9951 22 7V15C22 15.64 21.6474 16.1275 21.2812 16.4521C20.9131 16.7784 20.4353 17.0314 19.9277 17.2295C19.0627 17.5671 17.9552 17.8025 16.7344 17.918C16.5729 18.182 16.3583 18.3973 16.1475 18.5635C15.7186 18.9015 15.1597 19.1629 14.5586 19.3633C13.3459 19.7674 11.7343 20 10 20C8.26575 20 6.65407 19.7674 5.44141 19.3633C4.84028 19.1629 4.2814 18.9015 3.85254 18.5635C3.43501 18.2344 3 17.7138 3 17V9C3 8.28624 3.43501 7.76563 3.85254 7.43652C4.2814 7.09854 4.84028 6.83709 5.44141 6.63672C6.2368 6.37163 7.20394 6.18129 8.26465 6.08105C8.42611 5.81718 8.64181 5.60262 8.85254 5.43652C9.2814 5.09854 9.84028 4.83709 10.4414 4.63672C11.6541 4.23256 13.2657 4 15 4ZM14.5586 15.3633C13.3459 15.7674 11.7343 16 10 16C8.26575 16 6.65407 15.7674 5.44141 15.3633C5.29115 15.3132 5.1436 15.2591 5 15.2012V16.9111C5.01769 16.93 5.04609 16.9579 5.09082 16.9932C5.26921 17.1337 5.58893 17.3044 6.07324 17.4658C7.03211 17.7854 8.42072 18 10 18C11.5793 18 12.9679 17.7854 13.9268 17.4658C14.4111 17.3044 14.7308 17.1337 14.9092 16.9932C14.9539 16.9579 14.9823 16.93 15 16.9111V15.2012C14.8564 15.2591 14.7088 15.3132 14.5586 15.3633ZM19.9277 13.2295C19.1258 13.5424 18.1157 13.7672 17 13.8906V15.877C17.8884 15.7649 18.6423 15.5848 19.2002 15.3672C19.5874 15.2161 19.828 15.0676 19.9541 14.9561C19.9755 14.9371 19.989 14.9191 20 14.9072V13.1982C19.9757 13.208 19.9522 13.2199 19.9277 13.2295ZM14.5586 11.3633C13.3459 11.7674 11.7343 12 10 12C8.26575 12 6.65407 11.7674 5.44141 11.3633C5.29115 11.3132 5.1436 11.2591 5 11.2012V12.9121C5.01785 12.9309 5.0465 12.9582 5.09082 12.9932C5.26921 13.1337 5.58893 13.3044 6.07324 13.4658C7.03211 13.7854 8.42072 14 10 14C11.5793 14 12.9679 13.7854 13.9268 13.4658C14.4111 13.3044 14.7308 13.1337 14.9092 12.9932C14.9539 12.9579 14.9823 12.93 15 12.9111V11.2012C14.8564 11.2591 14.7088 11.3132 14.5586 11.3633ZM19.9277 9.22949C19.1258 9.54242 18.1157 9.7672 17 9.89062V11.877C17.8884 11.7649 18.6423 11.5848 19.2002 11.3672C19.5874 11.2161 19.828 11.0676 19.9541 10.9561C19.9755 10.9371 19.9893 10.9195 20 10.9072V9.19824C19.9757 9.20805 19.9522 9.21995 19.9277 9.22949ZM10 8C8.42072 8 7.03211 8.21456 6.07324 8.53418C5.59732 8.69284 5.28071 8.86092 5.10059 9C5.28071 9.13908 5.59732 9.30716 6.07324 9.46582C7.03211 9.78544 8.42072 10 10 10C11.5793 10 12.9679 9.78544 13.9268 9.46582C14.4021 9.30734 14.7182 9.13898 14.8984 9C14.7182 8.86102 14.4021 8.69266 13.9268 8.53418C12.9679 8.21456 11.5793 8 10 8ZM15 6C14.1192 6 13.2979 6.06813 12.5771 6.18262C13.3086 6.29072 13.9792 6.44362 14.5586 6.63672C15.1597 6.83709 15.7186 7.09854 16.1475 7.43652C16.3128 7.56686 16.4793 7.72843 16.6221 7.91895C17.6751 7.81413 18.5648 7.61505 19.2002 7.36719C19.5372 7.23569 19.7615 7.10386 19.8975 6.99902C19.717 6.86021 19.4012 6.69234 18.9268 6.53418C17.9679 6.21456 16.5793 6 15 6Z" fill="currentColor"/>
</svg>
