<svg width="24" height="24" viewBox="0 0 24 24" fill="none" xmlns="http://www.w3.org/2000/svg">
<path fill-rule="evenodd" clip-rule="evenodd" d="M6.8335 12.1847C7.73642 12.7495 8.82067 13.066 10 13.066C11.1793 13.066 12.2636 12.7495 13.1666 12.1846C14.7522 11.1926 15.7786 9.43447 15.7786 7.27901C15.7786 4.37023 13.1989 2 10 2C6.80118 2 4.22141 4.37023 4.22141 7.27901C4.22141 9.43448 5.24784 11.1926 6.8335 12.1847ZM10 4C7.73515 4 6.22141 5.63801 6.22141 7.27901C6.22141 9.53097 7.82766 11.066 10 11.066C12.1724 11.066 13.7786 9.53097 13.7786 7.27901C13.7786 5.63801 12.2649 4 10 4Z" fill="currentColor"/>
<path d="M6.15311 14.1023C5.98986 14.0761 5.82826 14.0494 5.66925 14.0225C3.79411 13.7056 2 14.9975 2 16.7626V21H13V19H4V16.7626C4 16.5996 4.07491 16.4012 4.31907 16.221C4.57088 16.0351 4.94043 15.9277 5.33593 15.9945C6.81397 16.2444 8.66524 16.5062 10 16.5062C10.5911 16.5062 11.2836 16.4548 12 16.3759V14.363C11.2614 14.4499 10.5641 14.5061 10 14.5062C8.97415 14.5062 7.50738 14.3199 6.15311 14.1023Z" fill="currentColor"/>
<path d="M18.8046 16.0626C18.8046 16.6194 18.3532 17.0708 17.7963 17.0708C17.2395 17.0708 16.7881 16.6194 16.7881 16.0626C16.7881 15.5057 17.2395 15.0543 17.7963 15.0543C18.3532 15.0543 18.8046 15.5057 18.8046 16.0626Z" fill="currentColor"/>
<path fill-rule="evenodd" clip-rule="evenodd" d="M17.1566 11.7032C16.9542 11.7032 16.7602 11.7836 16.6171 11.9267C16.4741 12.0698 16.3937 12.2638 16.3937 12.4661V12.8406L16.3938 12.8455C16.3956 12.9248 16.3761 13.0031 16.3374 13.0723C16.2987 13.1415 16.2421 13.199 16.1736 13.239C16.105 13.2789 16.0271 13.2997 15.9478 13.2992C15.8685 13.2987 15.7908 13.277 15.7227 13.2363L15.7188 13.234L15.3879 13.0454C15.2127 12.9459 15.0047 12.9194 14.8103 12.9723C14.6161 13.0251 14.4504 13.153 14.3497 13.3273L13.6965 14.4572C13.6462 14.5435 13.6133 14.6388 13.5998 14.7378C13.5861 14.8372 13.5922 14.9384 13.6177 15.0355C13.6432 15.1326 13.6876 15.2237 13.7484 15.3036C13.8092 15.3835 13.8852 15.4506 13.972 15.501L13.975 15.5028L14.3011 15.6854C14.3677 15.725 14.423 15.7811 14.4616 15.8483C14.5007 15.9165 14.5213 15.9937 14.5213 16.0724C14.5213 16.151 14.5007 16.2282 14.4616 16.2964C14.423 16.3637 14.3677 16.4198 14.3011 16.4593L13.975 16.6419L13.972 16.6437C13.8852 16.6942 13.8092 16.7613 13.7484 16.8412C13.6876 16.9211 13.6432 17.0122 13.6177 17.1093C13.5922 17.2064 13.5861 17.3075 13.5998 17.407C13.6133 17.5059 13.6462 17.6012 13.6965 17.6875L14.3498 18.8176C14.4504 18.992 14.616 19.1196 14.8103 19.1725C15.0047 19.2253 15.2121 19.1992 15.3872 19.0997L15.7127 18.9142C15.7798 18.8772 15.8552 18.8581 15.9318 18.8589C16.009 18.8597 16.0846 18.8806 16.1512 18.9196C16.2178 18.9585 16.2731 19.0142 16.3116 19.0811C16.35 19.1478 16.3704 19.2233 16.3708 19.3002V19.659C16.3708 19.8613 16.4512 20.0554 16.5942 20.1984C16.7373 20.3415 16.9314 20.4219 17.1337 20.4219H18.4415C18.6438 20.4219 18.8378 20.3415 18.9809 20.1984C19.124 20.0554 19.2044 19.8613 19.2044 19.659V19.2905C19.2047 19.2135 19.2251 19.138 19.2635 19.0713C19.302 19.0044 19.3573 18.9487 19.4239 18.9098C19.4905 18.8708 19.5662 18.8499 19.6433 18.8491C19.7199 18.8483 19.7954 18.8674 19.8624 18.9044L20.1879 19.0899C20.3631 19.1894 20.5705 19.2155 20.7649 19.1627C20.9591 19.1098 21.1248 18.982 21.2254 18.8077L21.8778 17.679L21.8786 17.6777C21.9289 17.5914 21.9618 17.4961 21.9754 17.3972C21.9891 17.2977 21.983 17.1965 21.9575 17.0994C21.932 17.0024 21.8875 16.9112 21.8267 16.8314C21.7659 16.7515 21.69 16.6844 21.6032 16.6339L21.6001 16.6321L21.2741 16.4495C21.2075 16.41 21.1522 16.3538 21.1136 16.2866C21.0745 16.2184 21.0539 16.1412 21.0539 16.0626C21.0539 15.9839 21.0745 15.9067 21.1136 15.8385C21.1522 15.7713 21.2075 15.7152 21.2741 15.6756L21.5903 15.4985C21.6773 15.4531 21.7548 15.3913 21.8184 15.3164C21.8846 15.2386 21.9344 15.1482 21.965 15.0508C21.9956 14.9533 22.0063 14.8506 21.9965 14.7489C21.9867 14.6473 21.9565 14.5486 21.9079 14.4587L21.2483 13.3173C21.1476 13.1429 20.9821 13.0153 20.7878 12.9625C20.5934 12.9096 20.386 12.9357 20.2108 13.0352L19.8853 13.2207C19.8183 13.2578 19.7428 13.2768 19.6662 13.276C19.5891 13.2752 19.5134 13.2543 19.4468 13.2153C19.3802 13.1764 19.3249 13.1207 19.2864 13.0538C19.248 12.9872 19.2276 12.9117 19.2272 12.8347V12.4661C19.2272 12.2638 19.1469 12.0698 19.0038 11.9267C18.8607 11.7836 18.6667 11.7032 18.4644 11.7032H17.1566ZM17.7964 17.8063C18.7594 17.8063 19.5401 17.0256 19.5401 16.0626C19.5401 15.0995 18.7594 14.3188 17.7964 14.3188C16.8333 14.3188 16.0526 15.0995 16.0526 16.0626C16.0526 17.0256 16.8333 17.8063 17.7964 17.8063Z" fill="currentColor"/>
</svg>
