<svg width="24" height="24" viewBox="0 0 24 24" fill="none" xmlns="http://www.w3.org/2000/svg">
<path fill-rule="evenodd" clip-rule="evenodd" d="M5.41897 4.18654C5.86838 3.86555 6.4925 3.96956 6.81351 4.41896L11.8135 11.419C12.0618 11.7666 12.0618 12.2334 11.8135 12.5811L6.81351 19.5811C6.49253 20.0304 5.86837 20.1344 5.41897 19.8135C4.96957 19.4925 4.86557 18.8684 5.18655 18.419L9.77151 12L5.18655 5.58107C4.86554 5.13166 4.96956 4.50755 5.41897 4.18654ZM13.419 4.18654C13.8684 3.86555 14.4925 3.96956 14.8135 4.41896L19.8135 11.419C20.0617 11.7666 20.0618 12.2334 19.8135 12.5811L14.8135 19.5811C14.4925 20.0304 13.8684 20.1344 13.419 19.8135C12.9696 19.4925 12.8656 18.8684 13.1866 18.419L17.7715 12L13.1866 5.58107C12.8655 5.13166 12.9696 4.50755 13.419 4.18654Z" fill="currentColor"/>
</svg>
