<svg width="24" height="24" viewBox="0 0 24 24" fill="none" xmlns="http://www.w3.org/2000/svg">
<path d="M13 5C13 4.44772 13.4477 4 14 4C14.5523 4 15 4.44772 15 5V19C15 19.5523 14.5523 20 14 20C13.4477 20 13 19.5523 13 19V5Z" fill="currentColor"/>
<path d="M6 6C5.44772 6 5 6.44771 5 7V17C5 17.5523 5.44772 18 6 18C6.55228 18 7 17.5523 7 17V7C7 6.44772 6.55228 6 6 6Z" fill="currentColor"/>
<path d="M10 9C9.44772 9 9 9.44772 9 10V14C9 14.5523 9.44772 15 10 15C10.5523 15 11 14.5523 11 14V10C11 9.44772 10.5523 9 10 9Z" fill="currentColor"/>
<path d="M18 8C17.4477 8 17 8.44772 17 9V15C17 15.5523 17.4477 16 18 16C18.5523 16 19 15.5523 19 15V9C19 8.44772 18.5523 8 18 8Z" fill="currentColor"/>
</svg>
