<svg width="24" height="24" viewBox="0 0 24 24" fill="none" xmlns="http://www.w3.org/2000/svg">
<path d="M2 3.5C2 2.94772 2.44772 2.5 3 2.5H4.5C6.3367 2.5 7.74231 3.33857 8.6635 4.51958C9.50863 5.60308 9.94384 6.96514 9.9949 8.24536C10.5366 9.27955 11.404 10.8609 12.0486 12.027C12.7851 13.3596 11.8237 15 10.2964 15H10V16C10 17.6569 8.65685 19 7 19H6.48095L6.46135 20.0192C6.45074 20.5714 5.99449 21.0104 5.44231 20.9998C4.89013 20.9892 4.4511 20.533 4.46172 19.9808L4.50019 17.9808C4.51066 17.4361 4.95521 17 5.5 17H7C7.55228 17 8 16.5523 8 16V14C8 13.4477 8.44772 13 9 13H10.2964L10.2978 12.9987L10.2991 12.9963L10.2981 12.9945C9.61144 11.7521 8.65475 10.0079 8.11201 8.95985C8.03841 8.81774 8 8.66004 8 8.5C8 7.54447 7.68508 6.51706 7.0865 5.74965C6.50768 5.00758 5.6633 4.5 4.5 4.5H3C2.44772 4.5 2 4.05228 2 3.5Z" fill="currentColor"/>
<path d="M14.5215 11.1434C14.8479 10.6979 15.4737 10.6014 15.9192 10.9278C17.0278 11.74 17.7509 13.0546 17.7509 14.538C17.7509 15.8761 17.1621 17.0779 16.2327 17.8962C15.8182 18.2612 15.1863 18.221 14.8214 17.8065C14.4564 17.392 14.4965 16.7601 14.9111 16.3952C15.4275 15.9405 15.7509 15.2776 15.7509 14.538C15.7509 13.719 15.3537 12.9928 14.7372 12.5411C14.2917 12.2147 14.1951 11.5889 14.5215 11.1434Z" fill="currentColor"/>
<path d="M18.3968 7.17659C17.9517 6.84961 17.3258 6.94535 16.9989 7.39044C16.6719 7.83553 16.7676 8.46141 17.2127 8.78839C18.9812 10.0876 20.1258 12.1789 20.1258 14.5378C20.1258 16.6479 19.2103 18.5429 17.7517 19.8495C17.3403 20.2181 17.3055 20.8503 17.6741 21.2616C18.0426 21.673 18.6748 21.7077 19.0861 21.3392C20.9504 19.6692 22.1258 17.2401 22.1258 14.5378C22.1258 11.5156 20.6562 8.8364 18.3968 7.17659Z" fill="currentColor"/>
</svg>
