<svg width="25" height="24" viewBox="0 0 25 24" fill="none" xmlns="http://www.w3.org/2000/svg">
<path fill-rule="evenodd" clip-rule="evenodd" d="M14.0396 3.68897C14.0396 1.87314 15.5116 0.401123 17.3274 0.401123C19.1433 0.401123 20.6153 1.87314 20.6153 3.68897C20.6153 5.5048 19.1433 6.97681 17.3274 6.97681C17.0386 6.97681 16.7585 6.93958 16.4917 6.86965L14.9631 9.28765C15.423 9.78588 15.7578 10.4013 15.9178 11.084H18.1188C18.496 10.2738 19.3175 9.71216 20.2701 9.71216C21.58 9.71216 22.6419 10.7741 22.6419 12.084C22.6419 13.3939 21.58 14.4558 20.2701 14.4558C19.3175 14.4558 18.496 13.8942 18.1187 13.084H15.8745C15.7658 13.4711 15.6002 13.8345 15.3875 14.1645L17.3922 16.6616C17.7909 16.4899 18.2303 16.3947 18.6919 16.3947C20.5078 16.3947 21.9798 17.8668 21.9798 19.6826C21.9798 21.4984 20.5078 22.9704 18.6919 22.9704C16.8761 22.9704 15.4041 21.4984 15.4041 19.6826C15.4041 19.0572 15.5787 18.4727 15.8818 17.9749L13.9151 15.5252C13.3518 15.8281 12.7075 16 12.0231 16C11.6884 16 11.3632 15.9589 11.0524 15.8814L9.53582 18.2512C9.70462 18.5741 9.80008 18.9414 9.80008 19.3309C9.80008 20.6198 8.75527 21.6646 7.46643 21.6646C6.1776 21.6646 5.13279 20.6198 5.13279 19.3309C5.13279 18.0421 6.1776 16.9973 7.46643 16.9973C7.62651 16.9973 7.78282 17.0134 7.93384 17.0441L9.29173 14.9223C8.76541 14.4301 8.37214 13.7974 8.17176 13.084H6.39281C5.94485 14.3672 4.72386 15.2879 3.28785 15.2879C1.47202 15.2879 0 13.8158 0 12C0 10.1842 1.47202 8.71216 3.28785 8.71216C4.78578 8.71216 6.04975 9.71389 6.4464 11.084H8.12851C8.30769 10.3192 8.70632 9.63892 9.25435 9.11316L8.69568 8.20438C8.57163 8.22323 8.44461 8.23301 8.3153 8.23301C6.92845 8.23301 5.80418 7.10874 5.80418 5.72189C5.80418 4.33504 6.92845 3.21078 8.3153 3.21078C9.70214 3.21078 10.8264 4.33504 10.8264 5.72189C10.8264 6.24771 10.6648 6.73579 10.3885 7.13915L10.9991 8.1323C11.3259 8.04598 11.6692 8 12.0231 8C12.4633 8 12.8869 8.0711 13.283 8.20245L14.8039 5.79662C14.3268 5.22595 14.0396 4.491 14.0396 3.68897ZM17.3274 2.40112C16.6162 2.40112 16.0396 2.97771 16.0396 3.68897C16.0396 4.40023 16.6162 4.97681 17.3274 4.97681C18.0387 4.97681 18.6153 4.40023 18.6153 3.68897C18.6153 2.97771 18.0387 2.40112 17.3274 2.40112ZM12.0231 10C10.9186 10 10.0231 10.8954 10.0231 12C10.0231 13.1046 10.9186 14 12.0231 14C13.1277 14 14.0231 13.1046 14.0231 12C14.0231 10.8954 13.1277 10 12.0231 10ZM18.6919 18.3947C17.9807 18.3947 17.4041 18.9713 17.4041 19.6826C17.4041 20.3938 17.9807 20.9704 18.6919 20.9704C19.4032 20.9704 19.9798 20.3938 19.9798 19.6826C19.9798 18.9713 19.4032 18.3947 18.6919 18.3947ZM2 12C2 11.2887 2.57659 10.7122 3.28785 10.7122C3.9991 10.7122 4.57569 11.2887 4.57569 12C4.57569 12.7113 3.9991 13.2879 3.28785 13.2879C2.57659 13.2879 2 12.7113 2 12Z" fill="currentColor"/>
</svg>
