<svg width="24" height="24" viewBox="0 0 24 24" fill="none" xmlns="http://www.w3.org/2000/svg">
<path d="M9 11C8.44772 11 8 11.4477 8 12C8 12.5523 8.44772 13 9 13H14C14.5523 13 15 12.5523 15 12C15 11.4477 14.5523 11 14 11H9Z" fill="currentColor"/>
<path d="M9 15C8.44772 15 8 15.4477 8 16C8 16.5523 8.44772 17 9 17H14C14.5523 17 15 16.5523 15 16C15 15.4477 14.5523 15 14 15H9Z" fill="currentColor"/>
<path fill-rule="evenodd" clip-rule="evenodd" d="M4 4C4 2.89543 4.89543 2 6 2H13.6716C14.4672 2 15.2303 2.31607 15.7929 2.87868L18.1213 5.20711C18.6839 5.76972 19 6.53278 19 7.32843V11V20C19 21.1046 18.1046 22 17 22H6C4.89543 22 4 21.1046 4 20V4ZM17 9H14C13.2597 9 12.6134 8.5978 12.2676 8H6V20H17V9ZM16.9445 7C16.8954 6.8588 16.8148 6.72904 16.7071 6.62132L14.3787 4.29289C14.271 4.18518 14.1412 4.10457 14 4.05547V7H16.9445ZM12 4L6 4V6H12V4Z" fill="currentColor"/>
</svg>
