<svg width="24" height="24" viewBox="0 0 24 24" fill="none" xmlns="http://www.w3.org/2000/svg">
<path d="M14.9753 4.61324C17.6375 5.76485 19.5002 8.41489 19.5002 11.5V14.1687C19.5002 14.5985 19.5775 15.0248 19.7284 15.4272L20.4299 17.2978C20.9202 18.6053 19.9536 20 18.5572 20H5.44322C4.0468 20 3.08024 18.6053 3.57056 17.2978L4.272 15.4272C4.42291 15.0248 4.50022 14.5985 4.50022 14.1687V11.5C4.50022 8.41506 6.36276 5.76515 9.02468 4.61343C9.21433 3.13917 10.4741 2 12 2C13.5258 2 14.7856 3.13907 14.9753 4.61324Z" fill="currentColor"/>
<path d="M9 22C9 21.4477 9.44772 21 10 21H14C14.5523 21 15 21.4477 15 22C15 22.5523 14.5523 23 14 23H10C9.44772 23 9 22.5523 9 22Z" fill="currentColor"/>
</svg>
