<svg width="24" height="24" viewBox="0 0 24 24" fill="none" xmlns="http://www.w3.org/2000/svg">
<path d="M6.71025 14.8954C6.71025 14.3224 7.18644 13.8579 7.77385 13.8579H12.2261C12.8136 13.8579 13.2898 14.3224 13.2898 14.8954C13.2898 15.4685 12.8136 15.933 12.2261 15.933H7.77385C7.18644 15.933 6.71025 15.4685 6.71025 14.8954Z" fill="currentColor"/>
<path fill-rule="evenodd" clip-rule="evenodd" d="M8.81324 3.72791C9.29102 3.26184 9.93904 3 10.6147 3H14.4523C15.8594 3 17 4.11269 17 5.48525V18.5147C17 19.8873 15.8594 21 14.4523 21H5.5477C4.14065 21 3 19.8873 3 18.5147V10.4281C3 9.76895 3.26842 9.13682 3.7462 8.67074L8.81324 3.72791ZM11.4841 5.07507C11.2519 5.07507 11.0636 5.25871 11.0636 5.48525V8.3807C11.0636 9.75326 9.92296 10.866 8.5159 10.866H5.5477C5.31547 10.866 5.12721 11.0496 5.12721 11.2761V18.5147C5.12721 18.7413 5.31547 18.9249 5.5477 18.9249H14.4523C14.6845 18.9249 14.8728 18.7413 14.8728 18.5147V5.48525C14.8728 5.25871 14.6845 5.07507 14.4523 5.07507H11.4841ZM6.63137 8.79088H8.5159C8.74813 8.79088 8.9364 8.60724 8.9364 8.3807V6.54236L6.63137 8.79088Z" fill="currentColor"/>
<path d="M20.9913 8.4998C20.9912 8.22366 20.7674 8 20.4912 8H19.5001C19.2239 8 19 8.22392 19.0001 8.5001L19.0006 11.2427C19.0009 12.4889 19.0012 13.7851 19.0013 14.5678C19.0013 14.844 19.2252 15.0673 19.5014 15.0673H20.4926C20.7687 15.0673 20.9926 14.8436 20.9926 14.5675C20.9925 13.7605 20.9922 12.7306 20.9919 11.684L20.9919 11.6082C20.9917 10.5044 20.9914 9.38771 20.9913 8.4998Z" fill="currentColor"/>
<path d="M21 16.9226C21 16.4051 20.5542 15.9855 20.0044 15.9855C19.4545 15.9855 19.0088 16.4051 19.0088 16.9226V17.0629C19.0088 17.5804 19.4545 18 20.0044 18C20.5542 18 21 17.5804 21 17.0629V16.9226Z" fill="currentColor"/>
</svg>
