<svg width="24" height="24" viewBox="0 0 24 24" fill="none" xmlns="http://www.w3.org/2000/svg">
<path fill-rule="evenodd" clip-rule="evenodd" d="M21 12C21 16.9706 16.9706 21 12 21C7.02944 21 3 16.9706 3 12C3 7.02944 7.02944 3 12 3C16.9706 3 21 7.02944 21 12ZM11.5805 5.29209C11.8304 5.01022 11.9745 5 12 5C12.0255 5 12.1696 5.01022 12.4195 5.29209C12.6683 5.57279 12.9381 6.03602 13.185 6.69427C13.5972 7.79349 13.8918 9.2921 13.9757 11H10.0243C10.1082 9.2921 10.4028 7.79349 10.815 6.69427C11.0619 6.03602 11.3317 5.57279 11.5805 5.29209ZM8.02218 11C8.10742 9.09021 8.43487 7.34531 8.94235 5.99202C8.98785 5.87069 9.03525 5.75128 9.0846 5.63413C6.96378 6.60701 5.41296 8.60854 5.07089 11H8.02218ZM5.07089 13H8.02218C8.10742 14.9098 8.43487 16.6547 8.94235 18.008C8.98785 18.1293 9.03525 18.2487 9.0846 18.3659C6.96378 17.393 5.41296 15.3915 5.07089 13ZM10.0243 13H13.9757C13.8918 14.7079 13.5972 16.2065 13.185 17.3057C12.9381 17.964 12.6683 18.4272 12.4195 18.7079C12.1696 18.9898 12.0255 19 12 19C11.9745 19 11.8304 18.9898 11.5805 18.7079C11.3317 18.4272 11.0619 17.964 10.815 17.3057C10.4028 16.2065 10.1082 14.7079 10.0243 13ZM15.9778 13C15.8926 14.9098 15.5651 16.6547 15.0576 18.008C15.0122 18.1293 14.9647 18.2487 14.9154 18.3659C17.0362 17.393 18.587 15.3915 18.9291 13H15.9778ZM18.9291 11C18.587 8.60854 17.0362 6.607 14.9154 5.63413C14.9647 5.75127 15.0122 5.87069 15.0576 5.99202C15.5651 7.34531 15.8926 9.09021 15.9778 11H18.9291Z" fill="currentColor"/>
</svg>
