<svg width="24" height="24" viewBox="0 0 24 24" fill="none" xmlns="http://www.w3.org/2000/svg">
<path fill-rule="evenodd" clip-rule="evenodd" d="M2 8C2 6.34315 3.34315 5 5 5H19C20.6569 5 22 6.34315 22 8V15C22 16.6569 20.6569 18 19 18H9.401C8.42134 18 7.47575 18.3595 6.74354 19.0104L5.32873 20.268C4.03892 21.4145 2 20.4989 2 18.7732V8ZM5 7C4.44772 7 4 7.44772 4 8V18.7732L5.41481 17.5155C6.51312 16.5393 7.93151 16 9.401 16H19C19.5523 16 20 15.5523 20 15V8C20 7.44772 19.5523 7 19 7H5Z" fill="currentColor"/>
</svg>
