<svg width="24" height="24" viewBox="0 0 24 24" fill="none" xmlns="http://www.w3.org/2000/svg">
<path fill-rule="evenodd" clip-rule="evenodd" d="M22 7C22 5.34315 20.6569 4 19 4H12C10.3431 4 9 5.34315 9 7V8H5C3.34315 8 2 9.34315 2 11V19.209C2 19.9917 2.85841 20.471 3.52466 20.0604L5.01244 19.1434C5.80112 18.6574 6.70932 18.4 7.63575 18.4H14C15.6569 18.4 17 17.0569 17 15.4V12.8002C17.8929 12.8082 18.7677 13.0551 19.5333 13.5158L20.4844 14.0881C21.1509 14.4891 22 14.0091 22 13.2312V7ZM19 6H12C11.4477 6 11 6.44772 11 7V9.8C11 10.3523 11.4477 10.8 12 10.8H16.9554C18.0126 10.8 19.0531 11.0394 20 11.4968V7C20 6.44772 19.5523 6 19 6ZM17 12.8002L16.9554 12.8C16.9703 12.8 16.9852 12.8001 17 12.8002ZM15 12.8H12C10.4104 12.8 9.10948 11.5636 9.00656 10H5C4.44772 10 4 10.4477 4 11V17.4182C5.09553 16.7524 6.35317 16.4 7.63575 16.4H14C14.5523 16.4 15 15.9523 15 15.4V12.8Z" fill="currentColor"/>
</svg>
