<svg width="24" height="24" viewBox="0 0 24 24" fill="none" xmlns="http://www.w3.org/2000/svg">
<path d="M9.59296 12.6174C8.94371 13.511 7.69297 13.7091 6.79935 13.0599L2.79492 10.1505L3.97049 8.53245L7.57041 11.1479C7.79382 11.3103 8.1065 11.2607 8.26881 11.0373L15.0406 1.7168L16.6586 2.89237L9.59296 12.6174Z" fill="currentColor"/>
<path d="M9.59296 19.6194C8.94371 20.513 7.69297 20.7111 6.79935 20.0618L2.79492 17.1524L3.97049 15.5344L7.57041 18.1499C7.79382 18.3122 8.1065 18.2627 8.26882 18.0393L15.0406 8.71875L16.6586 9.89432L9.59296 19.6194Z" fill="currentColor"/>
<path d="M16 23V20H13V18H16V15H18V18H21V20H18V23H16Z" fill="currentColor"/>
</svg>
