<svg width="24" height="24" viewBox="0 0 24 24" fill="none" xmlns="http://www.w3.org/2000/svg">
<path d="M21.2823 6.377C21.4185 6.54789 21.5 6.76443 21.5 7L21.2823 6.377Z" fill="currentColor"/>
<path d="M21.2823 6.377L17.7894 1.88611C17.4503 1.45016 16.822 1.37162 16.3861 1.71069C15.9501 2.04976 15.8716 2.67804 16.2106 3.11399L18.4553 6L4.5 6C3.94772 6 3.5 6.44771 3.5 7C3.5 7.55228 3.94772 8 4.5 8L18.4554 8L16.2106 10.8861C15.8716 11.3221 15.9501 11.9503 16.3861 12.2894C16.822 12.6285 17.4503 12.5499 17.7894 12.114L21.2861 7.61813C21.4193 7.44902 21.499 7.2359 21.5 7.00418" fill="currentColor"/>
<path d="M6.21065 22.114L2.71379 17.618C2.57988 17.4479 2.5 17.2333 2.5 17C2.5 16.7644 2.58144 16.5479 2.7177 16.377L6.21065 11.8861C6.54972 11.4502 7.17799 11.3716 7.61394 11.7107C8.04989 12.0498 8.12842 12.678 7.78935 13.114L5.54467 16L19.5 16C20.0523 16 20.5 16.4477 20.5 17C20.5 17.5523 20.0523 18 19.5 18L5.5446 18L7.78935 20.8861C8.12842 21.3221 8.04989 21.9503 7.61394 22.2894C7.17799 22.6285 6.54972 22.5499 6.21065 22.114Z" fill="currentColor"/>
</svg>
