<svg width="24" height="24" viewBox="0 0 24 24" fill="none" xmlns="http://www.w3.org/2000/svg">
<path fill-rule="evenodd" clip-rule="evenodd" d="M12 13.066C10.8207 13.066 9.73642 12.7495 8.8335 12.1847C7.24784 11.1926 6.22141 9.43448 6.22141 7.27901C6.22141 4.37023 8.80118 2 12 2C15.1989 2 17.7786 4.37023 17.7786 7.27901C17.7786 9.43447 16.7522 11.1926 15.1666 12.1846C14.2636 12.7495 13.1793 13.066 12 13.066ZM8.22141 7.27901C8.22141 5.63801 9.73515 4 12 4C14.2649 4 15.7786 5.63801 15.7786 7.27901C15.7786 9.53097 14.1724 11.066 12 11.066C9.82766 11.066 8.22141 9.53097 8.22141 7.27901ZM7.66925 14.0225C7.82826 14.0494 7.98986 14.0761 8.15311 14.1023C9.50738 14.3199 10.9742 14.5062 12 14.5062C13.0259 14.5061 14.4927 14.3199 15.8469 14.1023C16.0102 14.0761 16.1718 14.0494 16.3308 14.0225C18.2059 13.7056 20 14.9975 20 16.7626V21H18L18 16.7626C18 16.5996 17.9251 16.4012 17.6809 16.221C17.4291 16.0351 17.0596 15.9277 16.6641 15.9945C15.7581 16.1477 14.7119 16.3053 13.7304 16.4044L12.8889 17.6667L14 21H10L11.1111 17.6667L10.2696 16.4044C9.28807 16.3053 8.24189 16.1477 7.33593 15.9945C6.94043 15.9277 6.57088 16.0351 6.31907 16.221C6.07491 16.4012 6 16.5996 6 16.7626V21H4V16.7626C4 14.9975 5.79411 13.7056 7.66925 14.0225Z" fill="currentColor"/>
</svg>
