<svg width="24" height="24" viewBox="0 0 24 24" fill="none" xmlns="http://www.w3.org/2000/svg">
<path fill-rule="evenodd" clip-rule="evenodd" d="M11.004 5.28869C8.11046 6.14796 6 8.82752 6 12C6 12.0691 6.001 12.1379 6.00299 12.2064C6.47935 12.0719 6.98163 12 7.49996 12C10.5375 12 13 14.4624 13 17.5C13 18.0184 12.928 18.5207 12.7935 18.997C12.8621 18.999 12.9309 19 13 19C14.2352 19 15.3944 18.6808 16.4011 18.1199C14.912 16.5148 14 14.3637 14 12C14 11.4765 14.0447 10.9635 14.1305 10.4645C12.2794 9.57948 11 7.69011 11 5.50002C11 5.42928 11.0013 5.35883 11.004 5.28869ZM13.0353 5.00009C13.0121 5.16304 13 5.32993 13 5.50002C13 6.77564 13.683 7.89333 14.704 8.50503C15.1151 7.53045 15.6928 6.6435 16.4011 5.88008C15.404 5.3246 14.2573 5.00611 13.0353 5.00009ZM10.8071 18.6496C8.70497 17.9568 7.04318 16.295 6.35035 14.1929C6.70987 14.0679 7.09642 14 7.49996 14C9.43295 14 11 15.567 11 17.5C11 17.9034 10.932 18.29 10.8071 18.6496ZM4 12C4 7.02944 8.02944 3 13 3C15.1274 3 17.0849 3.73938 18.6255 4.97438L19.5988 5.75463L18.6255 6.53488C17.0231 7.81937 16 9.78987 16 12C16 14.2101 17.0231 16.1806 18.6255 17.4651L19.5988 18.2454L18.6255 19.0256C17.0849 20.2606 15.1274 21 13 21C8.02944 21 4 16.9706 4 12Z" fill="currentColor"/>
</svg>
