<svg width="24" height="24" viewBox="0 0 24 24" fill="none" xmlns="http://www.w3.org/2000/svg">
<path d="M13 6.50004H14.4778C14.8938 6.50004 15.1279 6.0215 14.8724 5.69307L12.3948 2.50748C12.1946 2.25011 11.8056 2.25011 11.6054 2.50748L9.12773 5.69307C8.87229 6.0215 9.10634 6.50004 9.52241 6.50004H11V13.023C11.571 12.3459 12.2459 11.7594 13 11.2878V6.50004Z" fill="currentColor"/>
<path d="M10.4011 13.8239C9.08666 12.6876 7.37366 12 5.5 12H5.00004V10.5224C5.00004 10.1063 4.5215 9.87229 4.19307 10.1277L1.00748 12.6054C0.75011 12.8056 0.75011 13.1946 1.00748 13.3948L4.19307 15.8724C4.5215 16.1279 5.00004 15.8938 5.00004 15.4778V14H5.5C7.0617 14 8.47162 14.6517 9.4729 15.698C9.70555 15.0316 10.0188 14.403 10.4011 13.8239Z" fill="currentColor"/>
<path d="M18.5 14C15.463 14 13 16.4647 13 19.5028V19.9996C13 20.5519 12.5523 21 12 21C11.4477 21 11 20.5523 11 20V19.5028C11 15.3613 14.3573 12 18.5 12H19V10.5224C19 10.1063 19.4785 9.87229 19.8069 10.1277L22.9925 12.6054C23.2499 12.8056 23.2499 13.1946 22.9925 13.3948L19.8069 15.8724C19.4785 16.1279 19 15.8938 19 15.4778V14H18.5Z" fill="currentColor"/>
</svg>
