<svg width="24" height="24" viewBox="0 0 24 24" fill="none" xmlns="http://www.w3.org/2000/svg">
<path fill-rule="evenodd" clip-rule="evenodd" d="M18.085 4.68353C19.2078 4.68353 20.118 3.77335 20.118 2.6506C20.118 1.52785 19.2078 0.617676 18.085 0.617676C16.9623 0.617676 16.0521 1.52785 16.0521 2.6506C16.0521 2.96132 16.1218 3.25575 16.2465 3.51912L13.2625 8.20331C12.8656 8.07141 12.4411 8 12 8C11.646 8 11.3028 8.04598 10.9759 8.13229L10.0844 6.68215C10.238 6.39617 10.3251 6.0692 10.3251 5.72189C10.3251 4.59914 9.41491 3.68897 8.29216 3.68897C7.1694 3.68897 6.25923 4.59914 6.25923 5.72189C6.25923 6.84464 7.1694 7.75481 8.29216 7.75481C8.32651 7.75481 8.36067 7.75396 8.39461 7.75228L9.23121 9.11315C8.68318 9.63891 8.28455 10.3192 8.10537 11.084H4.48085C4.13175 10.4673 3.46972 10.0511 2.71048 10.0511C1.58772 10.0511 0.677551 10.9612 0.677551 12.084C0.677551 13.2067 1.58772 14.1169 2.71048 14.1169C3.46972 14.1169 4.13176 13.7007 4.48085 13.084H8.14862C8.349 13.7974 8.74226 14.4301 9.26859 14.9223L7.73493 17.3188C7.63969 17.3051 7.54231 17.298 7.44329 17.298C6.32053 17.298 5.41036 18.2082 5.41036 19.3309C5.41036 20.4537 6.32053 21.3638 7.44329 21.3638C8.56604 21.3638 9.47621 20.4537 9.47621 19.3309C9.47621 19.0545 9.42103 18.7909 9.32107 18.5506L11.0293 15.8814C11.3401 15.9589 11.6652 16 12 16C12.6856 16 13.331 15.8275 13.895 15.5235L16.9893 19.342C16.8833 19.5884 16.8245 19.8599 16.8245 20.1451C16.8245 21.2679 17.7347 22.178 18.8575 22.178C19.9802 22.178 20.8904 21.2679 20.8904 20.1451C20.8904 19.0224 19.9802 18.1122 18.8575 18.1122C18.764 18.1122 18.672 18.1185 18.582 18.1307L15.3659 14.162C15.5779 13.8326 15.7429 13.4701 15.8514 13.084H18.4766C18.8257 13.7007 19.4877 14.1169 20.247 14.1169C21.3697 14.1169 22.2799 13.2067 22.2799 12.084C22.2799 10.9612 21.3697 10.0511 20.247 10.0511C19.4877 10.0511 18.8257 10.4673 18.4766 11.084H15.8946C15.7349 10.4022 15.4007 9.78751 14.9418 9.28963L17.8824 4.67355C17.949 4.68015 18.0167 4.68353 18.085 4.68353ZM12 10C10.8954 10 10 10.8954 10 12C10 13.1046 10.8954 14 12 14C13.1046 14 14 13.1046 14 12C14 10.8954 13.1046 10 12 10Z" fill="currentColor"/>
</svg>
