<svg width="24" height="24" viewBox="0 0 24 24" fill="none" xmlns="http://www.w3.org/2000/svg">
<path d="M15 16C15 16.5523 14.5523 17 14 17C13.4477 17 13 16.5523 13 16V6C13 5.44772 13.4477 5 14 5C14.5523 5 15 5.44772 15 6V16Z" fill="currentColor"/>
<path d="M9 17C8.44772 17 8 16.5523 8 16V12C8 11.4477 8.44772 11 9 11C9.55228 11 10 11.4477 10 12V16C10 16.5523 9.55228 17 9 17Z" fill="currentColor"/>
<path d="M5 16C5 16.5523 4.55228 17 4 17C3.44772 17 3 16.5523 3 16V8C3 7.44772 3.44772 7 4 7C4.55228 7 5 7.44772 5 8V16Z" fill="currentColor"/>
<path d="M19 17C18.4477 17 18 16.5523 18 16V8C18 7.44772 18.4477 7 19 7C19.5523 7 20 7.44772 20 8V16C20 16.5523 19.5523 17 19 17Z" fill="currentColor"/>
<path d="M20 18H3V20H20V18Z" fill="currentColor"/>
</svg>
