<svg width="24" height="24" viewBox="0 0 24 24" fill="none" xmlns="http://www.w3.org/2000/svg">
<path fill-rule="evenodd" clip-rule="evenodd" d="M14.7776 4.40223C15.4414 3.73839 16.4777 3.62563 17.2687 4.13115L17.3242 4.16658C18.669 5.02595 19.8107 6.16767 20.6701 7.5125L20.7055 7.56793C21.2107 8.35854 21.0984 9.39399 20.4356 10.0579C20.4352 10.0583 20.4348 10.0587 20.4344 10.0591L18.5583 11.9467L18.5561 11.9488L9.77795 20.727H4.12109V15.0701L12.8971 6.2941L12.8993 6.29196L14.7755 4.40437L14.7776 4.40223ZM16.2472 5.85186L16.1918 5.81644L15.0185 6.99693L17.8469 9.82534L19.0202 8.64487L18.9848 8.58944C18.2817 7.48913 17.3475 6.55499 16.2472 5.85186ZM16.4348 11.2417L13.6064 8.41327L6.12109 15.8986V18.727H8.94952L16.4348 11.2417Z" fill="currentColor"/>
</svg>
