<svg width="24" height="24" viewBox="0 0 24 24" fill="none" xmlns="http://www.w3.org/2000/svg">
<path d="M11 5.99997H6C5.44773 5.99997 5.00002 6.4477 5 6.99997V18C5 18.5523 5.44772 19 6 19H17C17.5523 19 18 18.5523 18 18V13L20 12V18C20 19.6568 18.6569 21 17 21H6C4.34315 21 3 19.6568 3 18V6.99997C3.00002 5.34313 4.34316 3.99997 6 3.99997H12L11 5.99997Z" fill="currentColor"/>
<path d="M19.9688 7.35446L13.3232 14H10V10.6767L16.6455 4.03122L19.9688 7.35446Z" fill="currentColor"/>
<path d="M18.8691 1.93454C19.1291 1.67474 19.535 1.63017 19.8447 1.82809L19.8877 1.85641C20.8452 2.46829 21.6586 3.28074 22.2705 4.23825L22.2979 4.2822C22.4957 4.59198 22.4513 4.99784 22.1914 5.25778L21.1729 6.27634L17.8506 2.95309L18.8691 1.93454Z" fill="currentColor"/>
</svg>
