<svg width="24" height="24" viewBox="0 0 24 24" fill="none" xmlns="http://www.w3.org/2000/svg">
<path fill-rule="evenodd" clip-rule="evenodd" d="M13.6641 1.90815C12.6564 1.23635 11.3436 1.23635 10.3359 1.90815L3.3359 6.57481C2.5013 7.13121 2 8.0679 2 9.07096V19.0006C2 20.6574 3.34315 22.0006 5 22.0006H19C20.6569 22.0006 22 20.6574 22 19.0006V9.07096C22 8.0679 21.4987 7.13121 20.6641 6.57481L13.6641 1.90815ZM11.4453 3.57225C11.7812 3.34831 12.2188 3.34831 12.5547 3.57225L19.47 8.18243L12.6283 13.7074C12.2617 14.0035 11.7381 14.0034 11.3715 13.7071L4.53276 8.18061L11.4453 3.57225ZM4 10.3215V19.0006C4 19.5529 4.44772 20.0006 5 20.0006H19C19.5523 20.0006 20 19.5529 20 19.0006V10.3251L13.8849 15.2634C12.7849 16.1516 11.2141 16.1513 10.1145 15.2627L4 10.3215Z" fill="currentColor"/>
</svg>
