<svg width="24" height="24" viewBox="0 0 24 24" fill="none" xmlns="http://www.w3.org/2000/svg">
<path d="M14.6947 8.28802H15.9547L15.0907 13.166C14.9947 13.73 14.9887 14.138 15.0727 14.39C15.1687 14.642 15.3727 14.768 15.6847 14.768C15.9967 14.768 16.3027 14.696 16.6027 14.552C16.9027 14.408 17.1727 14.186 17.4127 13.886C17.6527 13.586 17.8447 13.208 17.9887 12.752C18.1447 12.296 18.2227 11.756 18.2227 11.132C18.2227 10.232 18.0727 9.46402 17.7727 8.82802C17.4727 8.19202 17.0587 7.67002 16.5307 7.26202C16.0147 6.84202 15.4027 6.53602 14.6947 6.34402C13.9867 6.15202 13.2247 6.05602 12.4087 6.05602C11.4727 6.05602 10.6027 6.22402 9.79865 6.56002C8.99465 6.89602 8.29265 7.35802 7.69265 7.94602C7.10465 8.53402 6.64265 9.23602 6.30665 10.052C5.97065 10.856 5.80265 11.732 5.80265 12.68C5.80265 13.616 5.94065 14.456 6.21665 15.2C6.50465 15.944 6.91865 16.574 7.45865 17.09C7.99865 17.618 8.66465 18.02 9.45665 18.296C10.2607 18.584 11.1787 18.728 12.2107 18.728C12.5587 18.728 12.9547 18.686 13.3987 18.602C13.8427 18.518 14.2447 18.392 14.6047 18.224L15.1627 19.952C14.6707 20.192 14.1667 20.36 13.6507 20.456C13.1467 20.552 12.5647 20.6 11.9047 20.6C10.7407 20.6 9.66065 20.432 8.66465 20.096C7.68065 19.76 6.82265 19.262 6.09065 18.602C5.37065 17.942 4.80665 17.126 4.39865 16.154C3.99065 15.17 3.78665 14.036 3.78665 12.752C3.78665 11.444 4.02065 10.262 4.48865 9.20602C4.95665 8.15002 5.58665 7.25002 6.37865 6.50602C7.17065 5.76202 8.08865 5.19202 9.13265 4.79602C10.1767 4.38802 11.2807 4.18402 12.4447 4.18402C13.5487 4.18402 14.5747 4.34602 15.5227 4.67002C16.4707 4.98202 17.2927 5.43802 17.9887 6.03802C18.6847 6.62602 19.2307 7.35202 19.6267 8.21602C20.0227 9.06802 20.2207 10.04 20.2207 11.132C20.2207 11.9 20.0827 12.62 19.8067 13.292C19.5427 13.964 19.1707 14.546 18.6907 15.038C18.2227 15.53 17.6707 15.92 17.0347 16.208C16.4107 16.496 15.7387 16.64 15.0187 16.64C14.7187 16.64 14.4367 16.61 14.1727 16.55C13.9207 16.478 13.7047 16.364 13.5247 16.208C13.3567 16.052 13.2307 15.848 13.1467 15.596C13.0627 15.344 13.0387 15.032 13.0747 14.66H13.0027C12.8227 14.912 12.6247 15.158 12.4087 15.398C12.2047 15.638 11.9767 15.854 11.7247 16.046C11.4727 16.226 11.1967 16.37 10.8967 16.478C10.5967 16.586 10.2667 16.64 9.90665 16.64C9.61865 16.64 9.34265 16.58 9.07865 16.46C8.81465 16.328 8.58665 16.148 8.39465 15.92C8.20265 15.692 8.04665 15.416 7.92665 15.092C7.81865 14.768 7.76465 14.408 7.76465 14.012C7.76465 13.268 7.88465 12.548 8.12465 11.852C8.36465 11.144 8.68865 10.52 9.09665 9.98002C9.51665 9.44002 9.99665 9.00802 10.5367 8.68402C11.0887 8.34802 11.6707 8.18002 12.2827 8.18002C12.7027 8.18002 13.0567 8.24602 13.3447 8.37802C13.6327 8.49802 13.8967 8.66002 14.1367 8.86402L14.6947 8.28802ZM13.5607 10.466C13.4047 10.334 13.2427 10.232 13.0747 10.16C12.9067 10.088 12.6967 10.052 12.4447 10.052C12.0847 10.052 11.7487 10.154 11.4367 10.358C11.1367 10.562 10.8727 10.826 10.6447 11.15C10.4287 11.474 10.2607 11.84 10.1407 12.248C10.0207 12.644 9.96065 13.034 9.96065 13.418C9.96065 13.814 10.0387 14.138 10.1947 14.39C10.3627 14.642 10.6447 14.768 11.0407 14.768C11.2087 14.768 11.3887 14.72 11.5807 14.624C11.7727 14.516 11.9587 14.378 12.1387 14.21C12.3187 14.042 12.4927 13.85 12.6607 13.634C12.8287 13.418 12.9787 13.19 13.1107 12.95L13.5607 10.466Z" fill="currentColor"/>
</svg>
