<svg width="24" height="24" viewBox="0 0 24 24" fill="none" xmlns="http://www.w3.org/2000/svg">
<path fill-rule="evenodd" clip-rule="evenodd" d="M1 8C1 6.34315 2.34315 5 4 5H18C19.6569 5 21 6.34315 21 8V8.27421H19L12.9844 13.5821C11.8503 14.5828 10.1487 14.5828 9.01465 13.5821L3 8.27507V17C3 17.5523 3.44772 18 4 18H10.5C11.0523 18 11.5 18.4477 11.5 19C11.5 19.5523 11.0523 20 10.5 20H4C2.34315 20 1 18.6569 1 17V8ZM4.5778 7H17.4212L11.6611 12.0824C11.2831 12.416 10.7159 12.416 10.3379 12.0824L4.5778 7ZM17.3753 11.2191C17.8066 10.8741 18.4359 10.944 18.7809 11.3753L22.7809 16.3753L22.7891 16.3856C22.9452 16.5861 23.0147 16.8313 22.9975 17.0715C22.9826 17.2822 22.9024 17.4749 22.7771 17.6295L18.7809 22.6247C18.4359 23.0559 17.8066 23.1259 17.3753 22.7808C16.9441 22.4358 16.8742 21.8065 17.2192 21.3753L19.9194 18L13 18C12.4477 18 12 17.5523 12 17C12 16.4477 12.4477 16 13 16L19.9194 16L17.2192 12.6247C16.8742 12.1934 16.9441 11.5641 17.3753 11.2191Z" fill="currentColor"/>
</svg>
