<svg width="24" height="24" viewBox="0 0 24 24" fill="none" xmlns="http://www.w3.org/2000/svg">
<path fill-rule="evenodd" clip-rule="evenodd" d="M11.7455 3.8777C10.0102 2.14238 7.42857 1.77347 5.33326 2.76584C5.06888 2.89106 4.8819 3.13702 4.83196 3.42526C4.78203 3.71351 4.87537 4.00803 5.08223 4.21489L7.78565 6.91831L6.79771 7.90625L4.09451 5.20304C3.88763 4.99617 3.59307 4.90282 3.3048 4.95279C3.01653 5.00276 2.77057 5.1898 2.64539 5.45423C1.65359 7.54936 2.02265 10.1305 3.7577 11.8655C4.49178 12.5996 5.37747 13.0891 6.31353 13.3345L3.84844 15.7577C3.65719 15.9457 3.54946 16.2027 3.54946 16.4709V20.6402C3.54946 20.9164 3.77332 21.1402 4.04946 21.1402H8.63805L12.6358 17.2104L16.9384 21.5131C17.1071 21.6818 17.3359 21.7765 17.5745 21.7765C17.813 21.7765 18.0418 21.6818 18.2105 21.5131L21.3909 18.3327C21.7422 17.9814 21.7422 17.4118 21.3909 17.0605L17.1265 12.7961L20.1736 9.80073L20.1756 9.79881L21.8633 8.10085L21.8644 8.09977C22.4606 7.50257 22.5616 6.57114 22.1071 5.85995L22.0753 5.81009C21.3022 4.60036 20.2752 3.57333 19.0655 2.80029L19.0156 2.76842C18.304 2.31368 17.3718 2.41511 16.7747 3.01227L16.7728 3.01419L15.0851 4.71215L15.0831 4.71408L13.2383 6.52752C13.0015 5.55681 12.5041 4.6363 11.7455 3.8777ZM13.3132 8.9828L15.8575 11.5271L18.2654 9.16466L15.7211 6.62037L13.3132 8.9828ZM11.3625 15.9371L8.83984 13.4145C8.82174 13.418 8.80363 13.4215 8.78551 13.4248L5.34855 16.7968V19.3411H7.89284L11.3625 15.9371ZM9.69387 6.28223L7.44598 4.03435C8.5308 3.94858 9.64454 4.321 10.4734 5.14984C11.5097 6.18618 11.8328 7.66722 11.4379 8.98262C11.3428 9.29963 11.4294 9.64329 11.6634 9.87733L19.4827 17.6966L17.5745 19.6048L9.75403 11.7844C9.52015 11.5505 9.17679 11.4639 8.85994 11.5587C7.54521 11.9524 6.06548 11.629 5.02985 10.5934C4.20128 9.76482 3.82884 8.65156 3.91427 7.5671L6.16163 9.81446C6.51293 10.1658 7.08249 10.1658 7.43378 9.81446L9.69387 7.55438C9.86256 7.38568 9.95734 7.15688 9.95734 6.91831C9.95734 6.67973 9.86256 6.45093 9.69387 6.28223ZM18.0967 4.31627L18.0468 4.28441L16.9914 5.34631L19.5356 7.89059L20.5911 6.8287L20.5593 6.77884C19.9268 5.78906 19.0865 4.94877 18.0967 4.31627Z" fill="currentColor"/>
</svg>
