<svg width="24" height="24" viewBox="0 0 24 24" fill="none" xmlns="http://www.w3.org/2000/svg">
<path d="M9.7498 13.1758C9.1561 13.1758 8.6748 13.6571 8.6748 14.2508C8.6748 14.8445 9.1561 15.3258 9.7498 15.3258H14.2498C14.8435 15.3258 15.3248 14.8445 15.3248 14.2508C15.3248 13.6571 14.8435 13.1758 14.2498 13.1758H9.7498Z" fill="currentColor"/>
<path fill-rule="evenodd" clip-rule="evenodd" d="M12.6211 1.92578C11.9382 1.92578 11.2832 2.19708 10.8003 2.67998L5.679 7.8013C5.1961 8.28421 4.9248 8.93917 4.9248 9.6221V18.0008C4.9248 19.4229 6.07767 20.5758 7.4998 20.5758H16.4998C17.9219 20.5758 19.0748 19.4229 19.0748 18.0008V4.50078C19.0748 3.07865 17.9219 1.92578 16.4998 1.92578H12.6211ZM13.0748 4.50078C13.0748 4.26606 13.2651 4.07578 13.4998 4.07578H16.4998C16.7345 4.07578 16.9248 4.26606 16.9248 4.50078V18.0008C16.9248 18.2355 16.7345 18.4258 16.4998 18.4258H7.4998C7.26508 18.4258 7.0748 18.2355 7.0748 18.0008V10.5008C7.0748 10.2661 7.26508 10.0758 7.4998 10.0758H10.4998C11.9219 10.0758 13.0748 8.92291 13.0748 7.50078V4.50078ZM10.4998 7.92578H8.59508L10.9248 5.59606V7.50078C10.9248 7.7355 10.7345 7.92578 10.4998 7.92578Z" fill="currentColor"/>
</svg>
