<svg width="24" height="24" viewBox="0 0 24 24" fill="none" xmlns="http://www.w3.org/2000/svg">
<path fill-rule="evenodd" clip-rule="evenodd" d="M6 7C3.23858 7 1 9.23858 1 12C1 14.7614 3.23858 17 6 17H10C12.7614 17 15 14.7614 15 12H13C13 13.6569 11.6569 15 10 15H6C4.34315 15 3 13.6569 3 12C3 10.3431 4.34315 9 6 9H9V7H6ZM14 7C11.2386 7 9 9.23858 9 12H11C11 10.3431 12.3431 9 14 9H18C19.6569 9 21 10.3431 21 12C21 13.6569 19.6569 15 18 15H15V17H18C20.7614 17 23 14.7614 23 12C23 9.23858 20.7614 7 18 7H14Z" fill="currentColor"/>
</svg>
