<svg width="24" height="24" viewBox="0 0 24 24" fill="none" xmlns="http://www.w3.org/2000/svg">
<path d="M21.2823 7.377C21.4185 7.54789 21.5 7.76443 21.5 8L21.2823 7.377Z" fill="currentColor"/>
<path d="M21.2823 7.377L17.7894 2.88611C17.4503 2.45016 16.822 2.37162 16.3861 2.71069C15.9501 3.04976 15.8716 3.67804 16.2106 4.11399L18.4553 7L4.5 7C3.94772 7 3.5 7.44771 3.5 8C3.5 8.55228 3.94772 9 4.5 9L18.4554 9L16.2106 11.8861C15.8716 12.3221 15.9501 12.9503 16.3861 13.2894C16.822 13.6285 17.4503 13.5499 17.7894 13.114L21.2861 8.61813C21.4193 8.44902 21.499 8.2359 21.5 8.00418" fill="currentColor"/>
<path d="M14.2823 15.877C14.4185 16.0479 14.5 16.2644 14.5 16.5L14.2823 15.877Z" fill="currentColor"/>
<path d="M14.2823 15.877L10.7894 11.3861C10.4503 10.9502 9.82201 10.8716 9.38606 11.2107C8.95011 11.5498 8.87158 12.178 9.21065 12.614L11.4553 15.5L4.5 15.5C3.94772 15.5 3.5 15.9477 3.5 16.5C3.5 17.0523 3.94772 17.5 4.5 17.5L11.4554 17.5L9.21065 20.3861C8.87158 20.8221 8.95011 21.4503 9.38606 21.7894C9.82201 22.1285 10.4503 22.0499 10.7894 21.614L14.2861 17.1181C14.4193 16.949 14.499 16.7359 14.5 16.5042" fill="currentColor"/>
</svg>
