<svg width="24" height="24" viewBox="0 0 24 24" fill="none" xmlns="http://www.w3.org/2000/svg">
<path d="M17.8752 2.83727L21 2L22.89 9.05372L19.7653 9.89099L19.4503 8.71537L14.3147 10.0914C13.7645 9.42487 12.9318 9.00001 12 9.00001C11.08 9.00001 10.2566 9.41417 9.70634 10.0662L4.55325 11.447L3.92323 9.09575L10.1727 7.42122L9.85766 6.24559L18.1902 4.01289L17.8752 2.83727Z" fill="currentColor"/>
<path d="M1.84009 9.65392L2.88166 9.37484L3.51167 11.7261L2.4701 12.0052L1.84009 9.65392Z" fill="currentColor"/>
<path d="M18 22V20.561L13.3076 14.4957L12.7945 13.836C12.551 13.9415 12.2823 14 12 14C11.7189 14 11.4513 13.942 11.2086 13.8373L6 20.5698V22H4V21.3463L4.00368 21.3419L4 20.5686L10.0047 12.1385C10.0016 12.0928 10 12.0466 10 12C10 10.8954 10.8954 10 12 10C13.1046 10 14 10.8954 14 12C14 12.0436 13.9986 12.0869 13.9959 12.1298L20.0068 20.5687L20 22L18 22Z" fill="currentColor"/>
</svg>
