<svg width="24" height="24" viewBox="0 0 24 24" fill="none" xmlns="http://www.w3.org/2000/svg">
<path fill-rule="evenodd" clip-rule="evenodd" d="M5 4C3.34315 4 2 5.34315 2 7V17.7732C2 19.4989 4.03892 20.4145 5.32873 19.268L6.74354 18.0104C7.47575 17.3595 8.42134 17 9.401 17H19C20.6569 17 22 15.6569 22 14V7C22 5.34315 20.6569 4 19 4H5ZM15.7463 6.87687L11.2461 11.3768L9.401 9.62125L7.991 11.0312L10.5307 13.4585C10.9217 13.8675 11.574 13.8709 11.9692 13.466L17.1562 8.29688L15.7463 6.87687Z" fill="currentColor"/>
</svg>
