<svg width="24" height="24" viewBox="0 0 24 24" fill="none" xmlns="http://www.w3.org/2000/svg">
<path d="M11.3333 6.7521H13.1111V8.57131H11.3333V6.7521Z" fill="currentColor"/>
<path d="M11.3333 10.1631H13.1111V14.9385H11.3333V10.1631Z" fill="currentColor"/>
<path fill-rule="evenodd" clip-rule="evenodd" d="M6 3C4.34315 3 3 4.37444 3 6.0699V19.2923C3 20.5601 4.30385 21.3847 5.41202 20.8177L8.65444 19.1588C9.25614 18.8509 9.91963 18.6906 10.5924 18.6906H18C19.6569 18.6906 21 17.3162 21 15.6207V6.0699C21 4.37444 19.6569 3 18 3H6ZM5 6.0699C5 5.50475 5.44772 5.0466 6 5.0466H18C18.5523 5.0466 19 5.50475 19 6.0699V15.6207C19 16.1859 18.5523 16.644 18 16.644H10.5924C9.60914 16.644 8.63943 16.8783 7.76001 17.3282L5 18.7404V6.0699Z" fill="currentColor"/>
</svg>
