<svg width="24" height="24" viewBox="0 0 24 24" fill="none" xmlns="http://www.w3.org/2000/svg">
<path d="M12.3147 8.52396C11.9383 8.56704 11.5083 8.78188 11.2249 9.43191L9.3916 8.63241C9.96088 7.32705 11.0036 6.66094 12.0873 6.53692C13.1038 6.42061 14.1615 6.78589 14.8026 7.50474C15.5559 8.3494 15.7462 9.33049 15.5073 10.2269C15.2821 11.0718 14.7016 11.7583 14.0544 12.1898C13.7001 12.426 13.4489 12.6595 13.2815 12.9262C13.1214 13.1811 13.0014 13.5239 13.0014 14.0416H11.0014C11.0014 13.1837 11.2092 12.4654 11.5877 11.8626C11.9588 11.2717 12.4568 10.8511 12.945 10.5256C13.2676 10.3106 13.4978 10.0005 13.5748 9.71187C13.638 9.47478 13.6217 9.18544 13.31 8.83592C13.1483 8.65468 12.7584 8.47318 12.3147 8.52396Z" fill="currentColor"/>
<path d="M12.0088 15.0215C12.5611 15.0215 13.0088 15.4692 13.0088 16.0215V16.1712C13.0088 16.7234 12.5611 17.1712 12.0088 17.1712C11.4565 17.1712 11.0088 16.7234 11.0088 16.1712V16.0215C11.0088 15.4692 11.4565 15.0215 12.0088 15.0215Z" fill="currentColor"/>
<path fill-rule="evenodd" clip-rule="evenodd" d="M12 2C6.47715 2 2 6.47715 2 12C2 17.5228 6.47715 22 12 22C17.5228 22 22 17.5228 22 12C22 6.47715 17.5228 2 12 2ZM4 12C4 7.58172 7.58172 4 12 4C16.4183 4 20 7.58172 20 12C20 16.4183 16.4183 20 12 20C7.58172 20 4 16.4183 4 12Z" fill="currentColor"/>
</svg>
