<svg width="24" height="24" viewBox="0 0 24 24" fill="none" xmlns="http://www.w3.org/2000/svg">
<path d="M11 3C11 2.44772 11 2 12 2C13 2 13 2.44772 13 3V4C13 4.55228 13 5 12 5C11 5 11 4.55228 11 4V3Z" fill="currentColor"/>
<path d="M11 7C11 6.44772 11 6 12 6C13 6 13 6.44772 13 7V8C13 8.55229 13 9 12 9C11 9 11 8.55228 11 8V7Z" fill="currentColor"/>
<path d="M21.2823 11.377L17.7894 6.88611C17.4503 6.45016 16.822 6.37162 16.3861 6.71069C15.9501 7.04976 15.8716 7.67804 16.2106 8.11399L18.4553 11H4.5C3.94772 11 3.5 11.4477 3.5 12C3.5 12.5523 3.94772 13 4.5 13H18.4554L16.2106 15.8861C15.8716 16.3221 15.9501 16.9503 16.3861 17.2894C16.822 17.6285 17.4503 17.5499 17.7894 17.114L21.2861 12.6181C21.6328 12.1562 21.5625 11.6875 21.2823 11.377Z" fill="currentColor"/>
<path d="M12 19C11 19 11 19.4477 11 20V21C11 21.5523 11 22 12 22C13 22 13 21.5523 13 21V20C13 19.4477 13 19 12 19Z" fill="currentColor"/>
<path d="M12 15C11 15 11 15.4477 11 16V17C11 17.5523 11 18 12 18C13 18 13 17.5523 13 17V16C13 15.4477 13 15 12 15Z" fill="currentColor"/>
</svg>
