<svg width="24" height="24" viewBox="0 0 24 24" fill="none" xmlns="http://www.w3.org/2000/svg">
<path fill-rule="evenodd" clip-rule="evenodd" d="M12.0607 2.53899C12.4513 2.14846 13.0844 2.14846 13.4749 2.53899L21.9602 11.0243C22.3507 11.4148 22.3507 12.048 21.9602 12.4385C21.5697 12.829 20.9365 12.829 20.546 12.4385L19.839 11.7314L15.988 15.5824C15.8599 15.7105 15.769 15.8711 15.725 16.0469L15.0877 18.5962C14.6164 20.4814 12.2686 21.1317 10.8946 19.7576L8.52519 17.3882L6.40387 19.5096C5.69677 20.2167 4.67308 20.6072 4.28255 20.2167C3.89203 19.8261 4.28255 18.8024 4.98966 18.0953L7.11098 15.974L4.74173 13.6048C3.36765 12.2307 4.01794 9.88294 5.90315 9.41164L8.4524 8.77433C8.62823 8.73037 8.78881 8.63945 8.91697 8.51129L12.7679 4.66037L12.0607 3.9532C11.6702 3.56268 11.6702 2.92951 12.0607 2.53899ZM12.3088 18.3434C12.5836 18.6182 13.0531 18.4881 13.1474 18.1111L13.7847 15.5619C13.9166 15.0344 14.1893 14.5526 14.5738 14.1681L18.4247 10.3172L14.1821 6.07458L10.3312 9.92551C9.9467 10.31 9.46496 10.5827 8.93747 10.7146L6.38823 11.3519C6.01118 11.4462 5.88112 11.9157 6.15594 12.1905L12.3088 18.3434Z" fill="currentColor"/>
</svg>
