<svg width="24" height="24" viewBox="0 0 24 24" fill="none" xmlns="http://www.w3.org/2000/svg">
<path d="M11 6.5C11.5 6.5 12.5 6.5 13 6.5C13 8.5 13.0014 12.1725 13.0014 14.0416H11.0014C11.0014 12.8197 11 7.5 11 6.5Z" fill="currentColor"/>
<path d="M12.0088 15.0215C12.5611 15.0215 13.0088 15.4692 13.0088 16.0215V16.1712C13.0088 16.7234 12.5611 17.1712 12.0088 17.1712C11.4565 17.1712 11.0088 16.7234 11.0088 16.1712V16.0215C11.0088 15.4692 11.4565 15.0215 12.0088 15.0215Z" fill="currentColor"/>
<path fill-rule="evenodd" clip-rule="evenodd" d="M12 2C6.47715 2 2 6.47715 2 12C2 17.5228 6.47715 22 12 22C17.5228 22 22 17.5228 22 12C22 6.47715 17.5228 2 12 2ZM4 12C4 7.58172 7.58172 4 12 4C16.4183 4 20 7.58172 20 12C20 16.4183 16.4183 20 12 20C7.58172 20 4 16.4183 4 12Z" fill="currentColor"/>
</svg>
