<svg width="24" height="24" viewBox="0 0 24 24" fill="none" xmlns="http://www.w3.org/2000/svg">
<path d="M7 13C6.44772 13 6 13.4477 6 14C6 14.5523 6.44772 15 7 15H10C10.5523 15 11 14.5523 11 14C11 13.4477 10.5523 13 10 13H7Z" fill="currentColor"/>
<path d="M12 14C12 13.4477 12.4477 13 13 13H16C16.5523 13 17 13.4477 17 14C17 14.5523 16.5523 15 16 15H13C12.4477 15 12 14.5523 12 14Z" fill="currentColor"/>
<path d="M7 9C6.44772 9 6 9.44771 6 10C6 10.5523 6.44772 11 7 11H15C15.5523 11 16 10.5523 16 10C16 9.44771 15.5523 9 15 9H7Z" fill="currentColor"/>
<path fill-rule="evenodd" clip-rule="evenodd" d="M2 8C2 6.34315 3.34315 5 5 5H19C20.6569 5 22 6.34315 22 8V16C22 17.6569 20.6569 19 19 19H5C3.34315 19 2 17.6569 2 16V8ZM5 7C4.44772 7 4 7.44772 4 8V16C4 16.5523 4.44772 17 5 17H19C19.5523 17 20 16.5523 20 16V8C20 7.44772 19.5523 7 19 7H5Z" fill="currentColor"/>
</svg>
