<svg width="24" height="24" viewBox="0 0 24 24" fill="none" xmlns="http://www.w3.org/2000/svg">
<path d="M13.0046 4.36845L13.0046 16.5002H11.0046L11.0046 4.36846L6.55935 7.33199L5.44995 5.66789L11.45 1.66789C11.7859 1.44396 12.2235 1.44396 12.5594 1.66789L18.5594 5.66789L17.45 7.33199L13.0046 4.36845Z" fill="currentColor"/>
<path d="M19 9.49999C21.2091 9.49999 23 11.2909 23 13.5V17.5C23 19.7091 21.2091 21.5 19 21.5H5C2.79086 21.5 1 19.7091 1 17.5V13.5C1 11.2909 2.79086 9.49999 5 9.49999H6V11.5H5C3.89543 11.5 3 12.3954 3 13.5L3 17.5C3 18.6046 3.89543 19.5 5 19.5H19C20.1046 19.5 21 18.6046 21 17.5V13.5C21 12.3954 20.1046 11.5 19 11.5H18V9.49999H19Z" fill="currentColor"/>
</svg>
