<svg width="24" height="24" viewBox="0 0 24 24" fill="none" xmlns="http://www.w3.org/2000/svg">
<path d="M10 8.5C10 8.22386 10.2239 8 10.5 8H17.5C17.7761 8 18 8.22386 18 8.5V9.5C18 9.77614 17.7761 10 17.5 10H10.5C10.2239 10 10 9.77614 10 9.5V8.5Z" fill="currentColor"/>
<path d="M7 7.84375C6.36142 7.84375 5.84375 8.36142 5.84375 9C5.84375 9.63858 6.36142 10.1562 7 10.1562C7.63858 10.1562 8.15625 9.63858 8.15625 9C8.15625 8.36142 7.63858 7.84375 7 7.84375Z" fill="currentColor"/>
<path d="M10 13.5C10 13.2239 10.2239 13 10.5 13H17.5C17.7761 13 18 13.2239 18 13.5V14.5C18 14.7761 17.7761 15 17.5 15H10.5C10.2239 15 10 14.7761 10 14.5V13.5Z" fill="currentColor"/>
<path d="M7 12.8438C6.36142 12.8438 5.84375 13.3614 5.84375 14C5.84375 14.6386 6.36142 15.1562 7 15.1562C7.63858 15.1562 8.15625 14.6386 8.15625 14C8.15625 13.3614 7.63858 12.8438 7 12.8438Z" fill="currentColor"/>
<path fill-rule="evenodd" clip-rule="evenodd" d="M1 7C1 4.79086 2.79086 3 5 3H19C21.2091 3 23 4.79086 23 7V16C23 18.2091 21.2091 20 19 20H5C2.79086 20 1 18.2091 1 16V7ZM5 5C3.89543 5 3 5.89543 3 7V16C3 17.1046 3.89543 18 5 18H19C20.1046 18 21 17.1046 21 16V7C21 5.89543 20.1046 5 19 5H5Z" fill="currentColor"/>
</svg>
