<svg width="24" height="24" viewBox="0 0 24 24" fill="none" xmlns="http://www.w3.org/2000/svg">
<path d="M13.9701 5.56879C13.4392 5.72102 13.1322 6.2748 13.2844 6.80569L16.8677 19.3021C17.0199 19.833 17.5737 20.1399 18.1046 19.9877L20.0271 19.4364C20.558 19.2842 20.865 18.7304 20.7128 18.1995L17.1295 5.70314C16.9772 5.17225 16.4235 4.86528 15.8926 5.01751L13.9701 5.56879Z" fill="currentColor"/>
<path fill-rule="evenodd" clip-rule="evenodd" d="M4 5.00067C3.44772 5.00067 3 5.44839 3 6.00067V19.0007C3 19.553 3.44772 20.0007 4 20.0007H6C6.55228 20.0007 7 19.553 7 19.0007V6.00067C7 5.44839 6.55228 5.00067 6 5.00067H4ZM4.5 8.00067C4.22386 8.00067 4 8.22453 4 8.50067C4 8.77682 4.22386 9.00067 4.5 9.00067H5.5C5.77614 9.00067 6 8.77682 6 8.50067C6 8.22453 5.77614 8.00067 5.5 8.00067H4.5Z" fill="currentColor"/>
<path fill-rule="evenodd" clip-rule="evenodd" d="M9 5.00067C8.44772 5.00067 8 5.44839 8 6.00067V19.0007C8 19.553 8.44772 20.0007 9 20.0007H11C11.5523 20.0007 12 19.553 12 19.0007V6.00067C12 5.44839 11.5523 5.00067 11 5.00067H9ZM9.5 8.00067C9.22386 8.00067 9 8.22453 9 8.50067V10.5007C9 10.7768 9.22386 11.0007 9.5 11.0007H10.5C10.7761 11.0007 11 10.7768 11 10.5007V8.50067C11 8.22453 10.7761 8.00067 10.5 8.00067H9.5Z" fill="currentColor"/>
</svg>
