<svg width="24" height="24" viewBox="0 0 24 24" fill="none" xmlns="http://www.w3.org/2000/svg">
<path fill-rule="evenodd" clip-rule="evenodd" d="M22 5C22 3.34315 20.6569 2 19 2L16 2C14.3431 2 13 3.34315 13 5L13 13C13 14.6569 14.3431 16 16 16L19 16C20.6569 16 22 14.6569 22 13L22 5ZM19 4C19.5523 4 20 4.44772 20 5L20 13C20 13.5523 19.5523 14 19 14L16 14C15.4477 14 15 13.5523 15 13L15 5C15 4.44771 15.4477 4 16 4L19 4Z" fill="currentColor"/>
<path fill-rule="evenodd" clip-rule="evenodd" d="M11 5C11 3.34315 9.65685 2 8 2L5 2C3.34315 2 2 3.34314 2 5L2 19C2 20.6569 3.34314 22 5 22L8 22C9.65685 22 11 20.6569 11 19L11 5ZM8 4C8.55228 4 9 4.44771 9 5L9 19C9 19.5523 8.55228 20 8 20L5 20C4.44771 20 4 19.5523 4 19L4 5C4 4.44771 4.44772 4 5 4L8 4Z" fill="currentColor"/>
</svg>
