<svg width="24" height="24" viewBox="0 0 24 24" fill="none" xmlns="http://www.w3.org/2000/svg">
<path d="M5.12904 2.2384C5.18928 1.98038 5.54188 1.97971 5.60303 2.2375L6.22774 4.87115C6.33806 5.33625 6.69085 5.69708 7.13984 5.80402L9.54295 6.37644C9.79333 6.43608 9.79652 6.80579 9.54722 6.87009L7.11858 7.49655C6.68103 7.60941 6.33899 7.96403 6.22909 8.41873L5.60277 11.0102C5.54081 11.2666 5.19033 11.2659 5.12929 11.0093L4.51407 8.42329C4.40531 7.96612 4.06202 7.60922 3.6224 7.49627L1.18548 6.87015C0.935887 6.80603 0.939073 6.43587 1.18973 6.3764L3.6012 5.80425C4.0522 5.69724 4.40621 5.33415 4.51537 4.86664L5.12904 2.2384Z" fill="currentColor"/>
<path d="M15.7878 2.21204C15.8331 1.92914 16.2242 1.9294 16.2692 2.21236L17.316 8.79686C17.4763 9.80505 18.2024 10.6149 19.1582 10.8515L22.8125 11.7562C23.0611 11.8177 23.063 12.1848 22.8152 12.2492L19.1325 13.2067C18.1902 13.4518 17.4773 14.2549 17.3176 15.2514L16.2701 21.788C16.2248 22.0707 15.834 22.0707 15.7887 21.788L14.7412 15.2514C14.5815 14.2549 13.8687 13.4518 12.9263 13.2067L9.22041 12.2432C8.97399 12.1791 8.97399 11.8149 9.22041 11.7508L12.9263 10.7873C13.8687 10.5423 14.5815 9.73917 14.7412 8.74264L15.7878 2.21204Z" fill="currentColor"/>
<path d="M8.06933 15.0384C8.16723 14.8907 8.37751 14.8924 8.47319 15.0416L8.83213 15.6014C8.92289 15.7429 9.04009 15.864 9.17676 15.9575L9.68633 16.306C9.82992 16.4042 9.8335 16.6219 9.69322 16.7252L9.14234 17.1307C9.02807 17.2148 8.92858 17.3187 8.84821 17.4379L8.47004 17.9989C8.37382 18.1416 8.17108 18.1433 8.07271 18.0022L7.66811 17.4217C7.59241 17.3131 7.50064 17.2177 7.39621 17.139L6.84487 16.7235C6.70756 16.62 6.71111 16.406 6.85176 16.3075L7.3621 15.9501C7.48881 15.8614 7.59836 15.7487 7.68507 15.6179L8.06933 15.0384Z" fill="currentColor"/>
</svg>
