<svg width="24" height="24" viewBox="0 0 24 24" fill="none" xmlns="http://www.w3.org/2000/svg">
<path fill-rule="evenodd" clip-rule="evenodd" d="M7 2C7.55228 2 8 2.44772 8 3V4H16V3C16 2.44772 16.4477 2 17 2C17.5523 2 18 2.44772 18 3V4H19C20.6569 4 22 5.34315 22 7V19C22 20.6569 20.6569 22 19 22H5C3.34315 22 2 20.6569 2 19V7C2 5.34315 3.34315 4 5 4H6V3C6 2.44772 6.44772 2 7 2ZM5 6C4.44772 6 4 6.44772 4 7V9.17071C4.31278 9.06015 4.64936 9 5 9H19C19.3506 9 19.6872 9.06015 20 9.17071V7C20 6.44772 19.5523 6 19 6H5ZM4 12V19C4 19.5523 4.44772 20 5 20H19C19.5523 20 20 19.5523 20 19V12C20 11.4477 19.5523 11 19 11H5C4.44772 11 4 11.4477 4 12Z" fill="currentColor"/>
</svg>
