<svg width="24" height="24" viewBox="0 0 24 24" fill="none" xmlns="http://www.w3.org/2000/svg">
<path d="M6 12C6 11.7239 6.22386 11.5 6.5 11.5H8.26923C8.54537 11.5 8.76923 11.7239 8.76923 12V13.9997C8.76923 14.2758 8.54537 14.4997 8.26923 14.4997H6.5C6.22386 14.4997 6 14.2758 6 13.9997V12Z" fill="currentColor"/>
<path d="M6.5 15.5003C6.22386 15.5003 6 15.7242 6 16.0003V18C6 18.2761 6.22386 18.5 6.5 18.5H8.26923C8.54537 18.5 8.76923 18.2761 8.76923 18V16.0003C8.76923 15.7242 8.54537 15.5003 8.26923 15.5003H6.5Z" fill="currentColor"/>
<path d="M10.6154 12C10.6154 11.7239 10.8392 11.5 11.1154 11.5H12.8846C13.1608 11.5 13.3846 11.7239 13.3846 12V13.9997C13.3846 14.2758 13.1608 14.4997 12.8846 14.4997H11.1154C10.8392 14.4997 10.6154 14.2758 10.6154 13.9997V12Z" fill="currentColor"/>
<path d="M11.1152 15.5003C10.8391 15.5003 10.6152 15.7242 10.6152 16.0003V18C10.6152 18.2761 10.8391 18.5 11.1152 18.5H12.8845C13.1606 18.5 13.3845 18.2761 13.3845 18V16.0003C13.3845 15.7242 13.1606 15.5003 12.8845 15.5003H11.1152Z" fill="currentColor"/>
<path d="M15.2305 12C15.2305 11.7239 15.4543 11.5 15.7305 11.5H17.4997C17.7758 11.5 17.9997 11.7239 17.9997 12V13.9997C17.9997 14.2758 17.7758 14.4997 17.4997 14.4997H15.7305C15.4543 14.4997 15.2305 14.2758 15.2305 13.9997V12Z" fill="currentColor"/>
<path d="M15.7305 15.5003C15.4543 15.5003 15.2305 15.7242 15.2305 16.0003V18C15.2305 18.2761 15.4543 18.5 15.7305 18.5H17.4997C17.7758 18.5 17.9997 18.2761 17.9997 18V16.0003C17.9997 15.7242 17.7758 15.5003 17.4997 15.5003H15.7305Z" fill="currentColor"/>
<path fill-rule="evenodd" clip-rule="evenodd" d="M8 3C8 2.44772 7.55228 2 7 2C6.44772 2 6 2.44772 6 3V4H5C3.34315 4 2 5.34315 2 7V19C2 20.6569 3.34315 22 5 22H19C20.6569 22 22 20.6569 22 19V7C22 5.34315 20.6569 4 19 4H18V3C18 2.44772 17.5523 2 17 2C16.4477 2 16 2.44772 16 3V4H8V3ZM4 7C4 6.44772 4.44772 6 5 6H19C19.5523 6 20 6.44772 20 7V8.17071C19.6872 8.06015 19.3506 8 19 8H5C4.64936 8 4.31278 8.06015 4 8.17071V7ZM4 19V11C4 10.4477 4.44772 10 5 10H19C19.5523 10 20 10.4477 20 11V19C20 19.5523 19.5523 20 19 20H5C4.44772 20 4 19.5523 4 19Z" fill="currentColor"/>
</svg>
