<svg width="24" height="24" viewBox="0 0 24 24" fill="none" xmlns="http://www.w3.org/2000/svg">
<path d="M19.3719 4.46989L18.137 2L15.3916 4.74536L16.1558 6.27374L10.2929 12.1366C9.90237 12.5272 9.90237 13.1603 10.2929 13.5509C10.6834 13.9414 11.3166 13.9414 11.7071 13.5509L17.5707 7.6873L19.0984 8.45117L21.8438 5.70582L19.3719 4.46989Z" fill="currentColor"/>
<path d="M17.6896 10.7759C17.8914 11.4295 18 12.1239 18 12.8438C18 16.7097 14.866 19.8438 11 19.8438C7.13401 19.8438 4 16.7097 4 12.8438C4 8.97776 7.13401 5.84375 11 5.84375C11.7198 5.84375 12.4143 5.9524 13.0678 6.15419L14.2425 4.44555C13.2365 4.05687 12.1431 3.84375 11 3.84375C6.02944 3.84375 2 7.87319 2 12.8438C2 17.8143 6.02944 21.8438 11 21.8438C15.9706 21.8438 20 17.8143 20 12.8438C20 11.7006 19.7869 10.6073 19.3982 9.60124L17.6896 10.7759Z" fill="currentColor"/>
<path d="M10.5031 9.88471L11.8561 7.91675C11.5779 7.86876 11.2919 7.84375 11 7.84375C8.23858 7.84375 6 10.0823 6 12.8438C6 15.6052 8.23858 17.8438 11 17.8438C13.7614 17.8438 16 15.6052 16 12.8438C16 12.5519 15.975 12.2659 15.927 11.9877L13.959 13.3407C13.7223 14.761 12.4876 15.8438 11 15.8438C9.34315 15.8438 8 14.5006 8 12.8438C8 11.3562 9.08271 10.1215 10.5031 9.88471Z" fill="currentColor"/>
</svg>
