<svg width="24" height="24" viewBox="0 0 24 24" fill="none" xmlns="http://www.w3.org/2000/svg">
<path fill-rule="evenodd" clip-rule="evenodd" d="M2 5.5C2 4.11929 3.11929 3 4.5 3H8.5C9.88071 3 11 4.11929 11 5.5V8.5C11 9.88071 9.88071 11 8.5 11H4.5C3.11929 11 2 9.88071 2 8.5V5.5ZM4.5 5C4.22386 5 4 5.22386 4 5.5V8.5C4 8.77614 4.22386 9 4.5 9H8.5C8.77614 9 9 8.77614 9 8.5V5.5C9 5.22386 8.77614 5 8.5 5H4.5Z" fill="currentColor"/>
<path fill-rule="evenodd" clip-rule="evenodd" d="M4.5 13C3.11929 13 2 14.1193 2 15.5V18.5C2 19.8807 3.11929 21 4.5 21H8.5C9.88071 21 11 19.8807 11 18.5V15.5C11 14.1193 9.88071 13 8.5 13H4.5ZM4 15.5C4 15.2239 4.22386 15 4.5 15H8.5C8.77614 15 9 15.2239 9 15.5V18.5C9 18.7761 8.77614 19 8.5 19H4.5C4.22386 19 4 18.7761 4 18.5V15.5Z" fill="currentColor"/>
<path fill-rule="evenodd" clip-rule="evenodd" d="M15.5 3C14.1193 3 13 4.11929 13 5.5V8.5C13 9.88071 14.1193 11 15.5 11H19.5C20.8807 11 22 9.88071 22 8.5V5.5C22 4.11929 20.8807 3 19.5 3H15.5ZM15 5.5C15 5.22386 15.2239 5 15.5 5H19.5C19.7761 5 20 5.22386 20 5.5V8.5C20 8.77614 19.7761 9 19.5 9H15.5C15.2239 9 15 8.77614 15 8.5V5.5Z" fill="currentColor"/>
</svg>
