<svg width="24" height="24" viewBox="0 0 24 24" fill="none" xmlns="http://www.w3.org/2000/svg">
<path d="M20.5 2C18.567 2 17 3.567 17 5.5C17 7.433 18.567 9 20.5 9C22.433 9 24 7.433 24 5.5C24 3.567 22.433 2 20.5 2Z" fill="currentColor"/>
<path d="M15 5.5C15 5.33146 15.0076 5.16468 15.0224 5H5C3.34315 5 2 6.34315 2 8V17C2 18.6569 3.34315 20 5 20H19C20.6569 20 22 18.6569 22 17V10.793C21.5232 10.9278 21.02 11 20.5 11C20.3315 11 20.1647 10.9924 20 10.9776V17C20 17.5523 19.5523 18 19 18H5C4.44772 18 4 17.5523 4 17V8.27507L10.0146 13.5821C11.1487 14.5828 12.8503 14.5828 13.9844 13.5821L17.7468 10.2623C17.1582 9.9213 16.6386 9.47427 16.2142 8.94735L12.6611 12.0824C12.2831 12.416 11.7159 12.416 11.3379 12.0824L5.5778 7H15.207C15.0722 6.52317 15 6.02001 15 5.5Z" fill="currentColor"/>
</svg>
