<svg width="24" height="24" viewBox="0 0 24 24" fill="none" xmlns="http://www.w3.org/2000/svg">
<path fill-rule="evenodd" clip-rule="evenodd" d="M12 2C12.1425 2 12.2848 2.0037 12.4268 2.00977C12.4793 2.01197 12.5317 2.01457 12.584 2.01758C12.7135 2.02516 12.8428 2.03526 12.9717 2.04785C13.0298 2.05346 13.0877 2.06078 13.1455 2.06738C13.2316 2.07731 13.3176 2.08746 13.4033 2.09961C13.4709 2.1091 13.5383 2.11904 13.6055 2.12988C13.6753 2.14125 13.7449 2.15415 13.8145 2.16699C13.9595 2.19358 14.1033 2.22309 14.2461 2.25586C14.2601 2.25909 14.2741 2.26234 14.2881 2.26562C14.9203 2.41365 15.5287 2.62212 16.1084 2.88379C16.1181 2.88816 16.128 2.89208 16.1377 2.89648C16.4098 3.02036 16.6752 3.15585 16.9336 3.30273C16.9556 3.31524 16.978 3.32716 17 3.33984C18.5176 4.21779 19.781 5.48249 20.6592 7C20.6716 7.02158 20.684 7.04377 20.6963 7.06543C21.2383 8.01863 21.6273 9.0688 21.832 10.1846C21.8445 10.2522 21.858 10.3197 21.8691 10.3877C21.8803 10.4568 21.8896 10.5262 21.8994 10.5957C21.9116 10.6814 21.9217 10.7674 21.9316 10.8535C21.9378 10.9078 21.9458 10.962 21.9512 11.0166C21.9643 11.1491 21.9736 11.2819 21.9814 11.415C21.9845 11.4674 21.987 11.5197 21.9893 11.5723C21.9954 11.7146 22 11.8572 22 12C22 13.8217 21.5102 15.528 20.6592 16.999L20.6602 17C20.6523 17.0135 20.6436 17.0265 20.6357 17.04C20.5913 17.1161 20.5464 17.1918 20.5 17.2666C20.477 17.3037 20.4531 17.3402 20.4297 17.377C20.3655 17.4774 20.3001 17.5769 20.2324 17.6748C20.1802 17.7506 20.1265 17.8252 20.0723 17.8994C20.0349 17.9505 19.9973 18.0014 19.959 18.0518C19.9006 18.1286 19.8408 18.2043 19.7803 18.2793C19.7384 18.3311 19.6962 18.3826 19.6533 18.4336C19.5834 18.5168 19.5121 18.5988 19.4395 18.6797C19.4148 18.7071 19.3902 18.7346 19.3652 18.7617C19.1727 18.9714 18.9714 19.1727 18.7617 19.3652C18.7346 19.3902 18.7071 19.4148 18.6797 19.4395C18.6038 19.5076 18.5272 19.5748 18.4492 19.6406C18.4067 19.6766 18.3644 19.7128 18.3213 19.748C18.2329 19.8201 18.1426 19.8899 18.0518 19.959C18.0014 19.9973 17.9505 20.0349 17.8994 20.0723C17.8267 20.1254 17.753 20.1773 17.6787 20.2285C17.6389 20.256 17.5998 20.2846 17.5596 20.3115C17.4631 20.376 17.3654 20.4388 17.2666 20.5C17.1918 20.5464 17.1161 20.5913 17.04 20.6357C17.0265 20.6436 17.0135 20.6523 17 20.6602L16.999 20.6592C15.528 21.5102 13.8217 22 12 22C11.8572 22 11.7146 21.9954 11.5723 21.9893C11.5197 21.987 11.4674 21.9845 11.415 21.9814C11.2855 21.9739 11.1563 21.9638 11.0273 21.9512C10.9692 21.9456 10.9114 21.9382 10.8535 21.9316C10.7674 21.9217 10.6814 21.9116 10.5957 21.8994C10.5281 21.8899 10.4607 21.88 10.3936 21.8691C10.3237 21.8578 10.2541 21.8449 10.1846 21.832C10.0395 21.8054 9.8957 21.776 9.75293 21.7432C9.73892 21.7399 9.72493 21.7367 9.71094 21.7334C9.0787 21.5853 8.47034 21.377 7.89062 21.1152C7.88092 21.1109 7.87102 21.1069 7.86133 21.1025C7.58924 20.9786 7.32381 20.8432 7.06543 20.6963C7.04377 20.684 7.02158 20.6726 7 20.6602C5.48249 19.782 4.21779 18.5167 3.33984 16.999C3.32716 16.9771 3.31524 16.9556 3.30273 16.9336C2.76085 15.9804 2.37156 14.9302 2.16699 13.8145C2.15415 13.7449 2.14125 13.6753 2.12988 13.6055C2.11904 13.5383 2.1091 13.4709 2.09961 13.4033C2.08746 13.3176 2.07731 13.2316 2.06738 13.1455C2.06078 13.0877 2.05346 13.0298 2.04785 12.9717C2.03526 12.8428 2.02516 12.7135 2.01758 12.584C2.01417 12.5249 2.01214 12.4656 2.00977 12.4062C2.00427 12.2711 2 12.1356 2 12C2 10.1782 2.48868 8.47107 3.33984 7C3.34772 6.98636 3.35535 6.97258 3.36328 6.95898C3.40777 6.88293 3.4526 6.80718 3.49902 6.73242C3.56024 6.63362 3.623 6.53588 3.6875 6.43945C3.71446 6.39923 3.74299 6.36012 3.77051 6.32031C3.82174 6.24608 3.8736 6.17235 3.92676 6.09961C3.96415 6.04853 4.0017 5.9976 4.04004 5.94727C4.09844 5.87046 4.1582 5.79475 4.21875 5.71973C4.26062 5.66791 4.30282 5.61639 4.3457 5.56543C4.41566 5.48221 4.48697 5.40019 4.55957 5.31934C4.58422 5.2919 4.60884 5.26446 4.63379 5.2373C4.82628 5.02763 5.02763 4.82628 5.2373 4.63379C5.26446 4.60884 5.2919 4.58422 5.31934 4.55957C5.40019 4.48697 5.48221 4.41566 5.56543 4.3457C5.61639 4.30282 5.66791 4.26062 5.71973 4.21875C5.79475 4.1582 5.87046 4.09844 5.94727 4.04004C5.9976 4.0017 6.04853 3.96415 6.09961 3.92676C6.17235 3.8736 6.24608 3.82174 6.32031 3.77051C6.36093 3.74242 6.40133 3.71402 6.44238 3.68652C6.538 3.6226 6.63447 3.55972 6.73242 3.49902C6.80718 3.4526 6.88293 3.40777 6.95898 3.36328C6.97258 3.35535 6.98636 3.34772 7 3.33984C8.47107 2.48868 10.1782 2 12 2ZM12 4C10.5425 4 9.17689 4.39127 8 5.07227L9 6.80371C8.08946 7.33053 7.33053 8.08946 6.80371 9L5.07227 8C4.39127 9.17689 4 10.5425 4 12H6C6 13.0927 6.2933 14.1166 6.80371 14.999L5.07227 15.999C5.77457 17.213 6.78611 18.2243 8 18.9268L9 17.1953C9.88272 17.7061 10.9068 18 12 18V20C13.4574 20 14.8222 19.6076 15.999 18.9268L14.999 17.1953C15.9098 16.6684 16.6684 15.9098 17.1953 14.999L18.9268 15.999C19.6076 14.8222 20 13.4574 20 12H18C18 10.9068 17.7061 9.88272 17.1953 9L18.9268 8C18.2243 6.78611 17.213 5.77457 15.999 5.07227L14.999 6.80371C14.1166 6.2933 13.0927 6 12 6V4Z" fill="currentColor"/>
<path d="M17 12C17 9.23858 14.7614 7 12 7C9.23858 7 7 9.23858 7 12C7 14.7614 9.23858 17 12 17V18C8.68629 18 6 15.3137 6 12C6 8.68629 8.68629 6 12 6C15.3137 6 18 8.68629 18 12C18 15.3137 15.3137 18 12 18V17C14.7614 17 17 14.7614 17 12Z" fill="currentColor"/>
<path d="M16.1667 12C16.1667 9.69881 14.3012 7.83333 12 7.83333C9.69881 7.83333 7.83333 9.69881 7.83333 12C7.83333 14.3012 9.69881 16.1667 12 16.1667V17C9.23858 17 7 14.7614 7 12C7 9.23858 9.23858 7 12 7C14.7614 7 17 9.23858 17 12C17 14.7614 14.7614 17 12 17V16.1667C14.3012 16.1667 16.1667 14.3012 16.1667 12Z" fill="currentColor"/>
</svg>
