<svg width="24" height="24" viewBox="0 0 24 24" fill="none" xmlns="http://www.w3.org/2000/svg">
<path d="M18.8137 7.58136C18.0938 7.03131 17.6406 6.68756 17.1863 6.41888L13.1949 11.4067C13.0724 11.5727 13 11.7779 13 12C13 12.0037 13 12.0075 13.0001 12.0112C13.0024 12.2263 13.0727 12.4252 13.1905 12.5873L17.1863 17.5814C17.7812 17.1719 18.125 16.9219 18.8137 16.4189L15.9431 13H22C22 12.5873 22 11.5 22 11H15.9432L18.8137 7.58136Z" fill="currentColor"/>
<path d="M5.18627 7.58136C5.57031 7.30475 6.10938 6.90631 6.81373 6.41888L10.8051 11.4067C10.9276 11.5727 11 11.7779 11 12C11 12.0037 11 12.0075 10.9999 12.0112C10.9976 12.2263 10.9273 12.4252 10.8095 12.5873L6.81373 17.5814C6.24219 17.1876 5.66406 16.7735 5.18627 16.4189L8.05687 13H2C2 12.375 2 11.4067 2 11H8.05676L5.18627 7.58136Z" fill="currentColor"/>
</svg>
