<svg width="24" height="24" viewBox="0 0 24 24" fill="none" xmlns="http://www.w3.org/2000/svg">
<path fill-rule="evenodd" clip-rule="evenodd" d="M6.00893 2.5C5.63016 2.5 5.28389 2.714 5.1145 3.05279L5.11291 3.05601L3.13083 7.05599C2.98224 7.35585 2.9935 7.71017 3.16083 7.99999L6.345 13.5151C6.12728 14.1364 6.00891 14.8044 6.00891 15.5C6.00891 18.8137 8.6952 21.5 12.0089 21.5C15.3226 21.5 18.0089 18.8137 18.0089 15.5C18.0089 14.7972 17.8881 14.1226 17.666 13.4959L20.8391 7.99997C21.0228 7.68173 21.0172 7.28835 20.8245 6.97548L18.3604 2.97551C18.1785 2.68025 17.857 2.50077 17.5113 2.5L17.5089 2.5H6.00893ZM7.79147 4.5H15.8005L12.9514 9.5736C12.6444 9.52516 12.3296 9.5 12.0089 9.5C11.6325 9.5 11.2642 9.53466 10.907 9.60097L7.79147 4.5ZM6.10024 5.56801L8.99646 10.3099C8.43688 10.6354 7.93475 11.0488 7.50897 11.5312L5.16075 7.46395L6.10024 5.56801ZM16.498 11.519L18.8088 7.51658L17.5488 5.47132L14.8773 10.2287C15.4901 10.5629 16.0382 11.0009 16.498 11.519ZM13.3159 12.1367V18.8633H11.4898V13.8183H11.4503L9.97888 14.6986V13.1483L11.6343 12.1367H13.3159Z" fill="currentColor"/>
</svg>
