<svg width="24" height="24" viewBox="0 0 24 24" fill="none" xmlns="http://www.w3.org/2000/svg">
<path fill-rule="evenodd" clip-rule="evenodd" d="M21.3477 3.70711C21.7383 3.31658 21.7383 2.68342 21.3477 2.29289C20.9572 1.90237 20.324 1.90237 19.9335 2.29289L17.218 5.00841C16.2898 3.23145 14.3057 2 12 2C8.80118 2 6.22141 4.37023 6.22141 7.27901C6.22141 9.43448 7.24784 11.1926 8.8335 12.1847C9.08514 12.3421 9.35087 12.4802 9.62881 12.5976L8.12813 14.0983C7.97338 14.0733 7.82014 14.048 7.66925 14.0225C5.79411 13.7056 4 14.9975 4 16.7626L4.00028 18.2261L1.93352 20.2929C1.54299 20.6834 1.54299 21.3166 1.93352 21.7071C2.32404 22.0976 2.95721 22.0976 3.34773 21.7071L21.3477 3.70711ZM15.6793 6.54715L11.2281 10.9983C9.4578 10.6787 8.22141 9.25475 8.22141 7.27901C8.22141 5.63801 9.73515 4 12 4C13.9256 4 15.3082 5.18396 15.6793 6.54715Z" fill="currentColor"/>
<path d="M6.82925 21H20V16.7626C20 14.9975 18.2059 13.7056 16.3308 14.0225C16.1718 14.0494 16.0102 14.0761 15.8469 14.1023C15.0326 14.2332 14.1775 14.3527 13.4021 14.4272L11.3412 16.4881C11.5711 16.4998 11.7918 16.5062 12 16.5062C13.3348 16.5062 15.186 16.2444 16.6641 15.9945C17.0596 15.9277 17.4291 16.0351 17.6809 16.221C17.9251 16.4012 18 16.5996 18 16.7626V19H8.82925L6.82925 21Z" fill="currentColor"/>
</svg>
