<svg width="24" height="24" viewBox="0 0 24 24" fill="none" xmlns="http://www.w3.org/2000/svg">
<path fill-rule="evenodd" clip-rule="evenodd" d="M10.5735 2.15361C11.0225 0.771718 12.9776 0.77171 13.4266 2.15361L15.1964 7.59988L20.9231 7.6001C22.3761 7.60015 22.9802 9.45947 21.8047 10.3136L17.1719 13.6798L18.9413 19.1262C19.3903 20.5081 17.8087 21.6572 16.6331 20.8032L12.0001 17.4374L7.36699 20.8032C6.19144 21.6572 4.6098 20.5081 5.05876 19.1262L6.82817 13.6798L2.19537 10.3136C1.01988 9.45948 1.62401 7.60015 3.07704 7.6001L8.80366 7.59988L10.5735 2.15361ZM12.0001 4.23503L10.5935 8.56345C10.3927 9.18143 9.81677 9.59984 9.16697 9.59987L4.61576 9.60004L8.29767 12.2753C8.82335 12.6573 9.04332 13.3343 8.84255 13.9523L7.43631 18.2808L11.1184 15.6058C11.6441 15.2239 12.356 15.2239 12.8817 15.6058L16.5638 18.2808L15.1576 13.9523C14.9568 13.3343 15.1768 12.6573 15.7024 12.2753L19.3843 9.60004L14.8331 9.59987C14.1833 9.59984 13.6074 9.18143 13.4066 8.56345L12.0001 4.23503Z" fill="currentColor"/>
</svg>
