<svg width="24" height="24" viewBox="0 0 24 24" fill="none" xmlns="http://www.w3.org/2000/svg">
<path fill-rule="evenodd" clip-rule="evenodd" d="M10 2C8.34315 2 7 3.34315 7 5V6H5C3.34315 6 2 7.34315 2 9V18C2 19.6569 3.34315 21 5 21H19C20.6569 21 22 19.6569 22 18V9C22 7.34315 20.6569 6 19 6H17V5C17 3.34315 15.6569 2 14 2H10ZM15 6V5C15 4.44772 14.5523 4 14 4H10C9.44772 4 9 4.44772 9 5V6H15ZM6.73747 8C5.93877 8 5.46238 8.89015 5.90542 9.5547L7.23875 11.5547C7.42422 11.8329 7.73645 12 8.0708 12H15.9301C16.2644 12 16.5766 11.8329 16.7621 11.5547L18.0954 9.5547C18.5385 8.89015 18.0621 8 17.2634 8H6.73747ZM4 18V10.232C4.06705 10.3786 4.14728 10.523 4.24132 10.6641L5.57465 12.6641C6.13105 13.4987 7.06774 14 8.0708 14H15.9301C16.9331 14 17.8698 13.4987 18.4262 12.6641L19.7596 10.6641C19.8532 10.5237 19.9331 10.3799 20 10.2339V18C20 18.5523 19.5523 19 19 19H5C4.44772 19 4 18.5523 4 18Z" fill="currentColor"/>
</svg>
