<svg width="24" height="24" viewBox="0 0 24 24" fill="none" xmlns="http://www.w3.org/2000/svg">
<path d="M7 2C5.39478 2 4 3.24576 4 4.89474V19.1053C4 20.7542 5.39478 22 7 22H17C18.6052 22 20 20.7542 20 19.1053V18.5L18 17.3947V19.1053C18 19.5492 17.6039 20 17 20H7C6.39608 20 6 19.5492 6 19.1053V4.89474C6 4.45084 6.39608 4 7 4H17C17.6039 4 18 4.45084 18 4.89474V6.5C18 6.5 18.5 6.875 19.0312 7.53125C19.5625 8.1875 20 8.64062 20 8.64062V4.89474C20 3.24576 18.6052 2 17 2H7Z" fill="currentColor"/>
<path fill-rule="evenodd" clip-rule="evenodd" d="M9 12C9 9.23858 11.2386 7 14 7C16.7614 7 19 9.23858 19 12C19 12.3687 18.9601 12.7282 18.8843 13.0742L22.9472 15.1056L22.0527 16.8944L18.071 14.9036C17.1642 16.1727 15.6787 17 14 17C11.2386 17 9 14.7614 9 12ZM14 9C12.3431 9 11 10.3431 11 12C11 13.6569 12.3431 15 14 15C15.6569 15 17 13.6569 17 12C17 10.3431 15.6569 9 14 9Z" fill="currentColor"/>
</svg>
