<svg width="24" height="24" viewBox="0 0 24 24" fill="none" xmlns="http://www.w3.org/2000/svg">
<path d="M5.95635 6.75535C5.78886 6.94851 5.63236 7.14725 5.48676 7.35085L8.52223 7.8186L8.21764 9.79527L2.53472 8.91956L1.78418 3.21875L3.76707 2.95769L4.14272 5.81099C4.24022 5.6873 4.34108 5.5653 4.44528 5.44512C8.06337 1.27244 14.379 0.82285 18.5517 4.44094C22.7244 8.05902 23.174 14.3747 19.5559 18.5474C15.9378 22.7201 9.62216 23.1697 5.44947 19.5516C3.48046 17.8443 2.33984 15.534 2.06553 13.1344L4.05258 12.9073C4.27225 14.8288 5.18373 16.674 6.7597 18.0405C10.0978 20.935 15.1504 20.5753 18.0448 17.2372C20.9393 13.899 20.5796 8.84647 17.2415 5.952C13.9033 3.05753 8.85081 3.4172 5.95635 6.75535Z" fill="currentColor"/>
<path d="M13.0006 5.49848H11.0006V12.3684L14.2413 16.1493L15.7599 14.8477L13.0006 11.6286V5.49848Z" fill="currentColor"/>
</svg>
