<svg width="24" height="24" viewBox="0 0 24 24" fill="none" xmlns="http://www.w3.org/2000/svg">
<path d="M12 14C13.1046 14 14 13.1046 14 12C14 10.8954 13.1046 10 12 10C10.8954 10 10 10.8954 10 12C10 13.1046 10.8954 14 12 14Z" fill="currentColor"/>
<path fill-rule="evenodd" clip-rule="evenodd" d="M13 4.06189V2H11V4.06189C7.38128 4.51314 4.51314 7.38128 4.06189 11H2V13H4.06189C4.51314 16.6187 7.38128 19.4869 11 19.9381V22H13V19.9381C16.6187 19.4869 19.4869 16.6187 19.9381 13H22V11H19.9381C19.4869 7.38128 16.6187 4.51314 13 4.06189ZM6.08296 13C6.50448 15.5125 8.4875 17.4955 11 17.917V17H13V17.917C15.5125 17.4955 17.4955 15.5125 17.917 13H17V11H17.917C17.4955 8.4875 15.5125 6.50448 13 6.08296V7H11V6.08296C8.4875 6.50448 6.50448 8.48749 6.08296 11H7V13H6.08296Z" fill="currentColor"/>
</svg>
