<svg width="24" height="24" viewBox="0 0 24 24" fill="none" xmlns="http://www.w3.org/2000/svg">
<path fill-rule="evenodd" clip-rule="evenodd" d="M12.8762 2.59315C12.4963 1.90238 11.5037 1.90238 11.1238 2.59315L1.81503 19.5181C1.44848 20.1846 1.93064 21 2.69124 21H21.3087C22.0693 21 22.5515 20.1846 22.1849 19.5181L12.8762 2.59315ZM13.6066 8.31604C13.657 8.05519 13.3443 7.89033 13.1698 8.08579L8.06802 13.8018C7.91748 13.9705 8.03316 14.2437 8.25511 14.2437H10.3914C10.5605 14.2437 10.6826 14.4111 10.6362 14.5794L9.50802 18.6629C9.43363 18.9322 9.76323 19.1195 9.94313 18.9102L14.9352 13.1021C15.0811 12.9322 14.9646 12.6638 14.7449 12.6638H12.7658L13.6066 8.31604Z" fill="currentColor"/>
</svg>
