<svg width="24" height="24" viewBox="0 0 24 24" fill="none" xmlns="http://www.w3.org/2000/svg">
<path fill-rule="evenodd" clip-rule="evenodd" d="M9.2311 15.22C9.93594 12.55 12.6718 10.957 15.3417 11.6618C18.0117 12.3667 19.6047 15.1025 18.8999 17.7725C18.8057 18.129 18.6754 18.4663 18.5139 18.7815L21.9236 21.7827L20.6022 23.284L17.2605 20.3427C16.0598 21.3384 14.4124 21.7591 12.7893 21.3306C10.1193 20.6258 8.52626 17.89 9.2311 15.22ZM14.8312 13.5956C13.2292 13.1727 11.5878 14.1285 11.1649 15.7305C10.7419 17.3325 11.6978 18.974 13.2997 19.3969C14.9017 19.8198 16.5432 18.8639 16.9661 17.262C17.389 15.66 16.4332 14.0185 14.8312 13.5956Z" fill="currentColor"/>
<path fill-rule="evenodd" clip-rule="evenodd" d="M7 2C7.55228 2 8 2.44772 8 3V4H16V3C16 2.44772 16.4477 2 17 2C17.5523 2 18 2.44772 18 3V4H19C20.6569 4 22 5.34315 22 7V13.5H20V11C20 10.4477 19.5523 10 19 10H5C4.44772 10 4 10.4477 4 11V19C4 19.5523 4.44772 20 5 20H8V22H5C3.34315 22 2 20.6569 2 19V7C2 5.34315 3.34315 4 5 4H6V3C6 2.44772 6.44772 2 7 2ZM5 6C4.44772 6 4 6.44772 4 7V8.17071C4.31278 8.06015 4.64936 8 5 8H19C19.3506 8 19.6872 8.06015 20 8.17071V7C20 6.44772 19.5523 6 19 6H5Z" fill="currentColor"/>
</svg>
