<svg width="24" height="24" viewBox="0 0 24 24" fill="none" xmlns="http://www.w3.org/2000/svg">
<path fill-rule="evenodd" clip-rule="evenodd" d="M5.89589 1.75363C3.96835 1.60855 2.28815 3.05352 2.14307 4.98106C1.99799 6.90861 3.44296 8.5888 5.3705 8.73388C7.14615 8.86753 8.7119 7.65185 9.06106 5.9526C9.59785 5.95523 10.2925 5.95152 11.0685 5.9459C11.493 5.94283 11.9475 5.93908 12.4228 5.93516C13.5834 5.92559 14.8685 5.91499 16.1468 5.91068C16.7848 5.90853 17.1309 6.25883 17.244 6.63935C17.3588 7.02577 17.2577 7.53139 16.7206 7.8985L14.6645 9.30397C14.0906 8.71707 13.3089 8.32851 12.4259 8.26205C10.4984 8.11697 8.81818 9.56194 8.6731 11.4895C8.62239 12.1631 8.7659 12.8066 9.05635 13.3648L7.4198 14.5162C4.78422 16.3704 6.09614 20.5152 9.3186 20.5152L15.3508 20.5152C15.822 21.737 16.9627 22.6432 18.3554 22.748C20.2829 22.8931 21.9631 21.4481 22.1082 19.5205C22.2533 17.593 20.8083 15.9128 18.8808 15.7677C17.1169 15.635 15.5602 16.8337 15.1973 18.5152L9.3186 18.5152C8.04914 18.5152 7.53233 16.8824 8.57059 16.1519L10.4695 14.816C10.8971 15.0527 11.3813 15.2032 11.9005 15.2423C13.8281 15.3874 15.5083 13.9424 15.6534 12.0149C15.6773 11.6969 15.658 11.3857 15.6003 11.0869L17.8493 9.54961C19.1071 8.68979 19.5223 7.28507 19.1611 6.0697C18.7983 4.84845 17.6762 3.90552 16.1401 3.91069C14.8566 3.91502 13.5632 3.92569 12.4009 3.93527C11.927 3.93918 11.4748 3.94291 11.054 3.94595C10.1367 3.95259 9.39198 3.95554 8.8868 3.95161C8.40754 2.74742 7.27528 1.85745 5.89589 1.75363ZM4.13743 5.13117C4.19961 4.30508 4.91969 3.68581 5.74578 3.74799C6.57187 3.81016 7.19114 4.53025 7.12897 5.35634C7.06679 6.18243 6.3467 6.8017 5.52061 6.73952C4.69452 6.67735 4.07525 5.95726 4.13743 5.13117ZM10.6675 11.6396C10.7296 10.8135 11.4497 10.1942 12.2758 10.2564C13.1019 10.3186 13.7212 11.0387 13.659 11.8648C13.5968 12.6909 12.8767 13.3101 12.0506 13.2479C11.2246 13.1858 10.6053 12.4657 10.6675 11.6396ZM18.7306 17.7621C17.9046 17.6999 17.1845 18.3192 17.1223 19.1453C17.0601 19.9714 17.6794 20.6914 18.5055 20.7536C19.3316 20.8158 20.0517 20.1965 20.1138 19.3704C20.176 18.5443 19.5567 17.8243 18.7306 17.7621Z" fill="currentColor"/>
</svg>
