<svg width="24" height="24" viewBox="0 0 24 24" fill="none" xmlns="http://www.w3.org/2000/svg">
<path fill-rule="evenodd" clip-rule="evenodd" d="M4.66925 14.0225C4.82767 14.0493 4.98867 14.0759 5.1513 14.102L5.15311 14.1023C6.50737 14.3199 7.97415 14.5061 9.00002 14.5062C10.0259 14.5061 11.4927 14.3199 12.8469 14.1023L12.8488 14.102C13.0114 14.0759 13.1723 14.0493 13.3308 14.0225C14.1223 13.8887 14.8994 14.0416 15.5332 14.3958C16.0523 14.032 16.9438 13.9883 17.3046 14.0562C18.3479 14.2526 19.5502 14.2561 20.655 14.0562C21.7598 13.8564 23.0002 14.3953 23.0002 16.0906V17.125C23.0002 17.6773 22.5525 18.125 22.0002 18.125H17V21C17 21.5523 16.5523 22 16 22H2C1.44772 22 1 21.5523 1 21V16.7626C1 14.9975 2.79411 13.7056 4.66925 14.0225ZM15 16.7626V20H3V16.7626C3 16.5996 3.07491 16.4012 3.31907 16.221C3.57088 16.0351 3.94043 15.9277 4.33593 15.9945C4.49996 16.0223 4.6669 16.0498 4.83577 16.077C6.1975 16.2958 7.80118 16.5062 9.00002 16.5062C10.1989 16.5061 11.8026 16.2958 13.1643 16.077C13.3331 16.0498 13.5001 16.0222 13.6641 15.9945C14.0596 15.9277 14.4291 16.0351 14.6809 16.221C14.9251 16.4012 15 16.5996 15 16.7626Z" fill="currentColor"/>
<path fill-rule="evenodd" clip-rule="evenodd" d="M14.7786 7.27901C14.7786 9.43447 13.7522 11.1926 12.1666 12.1846C11.2636 12.7495 10.1793 13.066 9 13.066C7.82072 13.066 6.7364 12.7495 5.8335 12.1847C4.24784 11.1926 3.22141 9.43448 3.22141 7.27901C3.22141 4.37023 5.80118 2 9.00002 2C12.1989 2 14.7786 4.37023 14.7786 7.27901ZM9.00001 11.066C8.18227 11.066 7.46786 10.848 6.89427 10.4891C5.90859 9.87246 5.22141 8.7639 5.22141 7.27901C5.22141 5.63801 6.73515 4 9.00002 4C11.2649 4 12.7786 5.63801 12.7786 7.27901C12.7786 8.76389 12.0915 9.87246 11.1058 10.4891C10.5322 10.848 9.81776 11.066 9.00001 11.066Z" fill="currentColor"/>
<path d="M17.3885 13.0421C17.8423 13.3244 18.3871 13.4825 18.9798 13.4825C19.5725 13.4825 20.1174 13.3244 20.5712 13.0421C21.3681 12.5464 21.8839 11.6679 21.8839 10.5909C21.8839 9.13746 20.5874 7.95312 18.9798 7.95312C17.3722 7.95312 16.0758 9.13746 16.0758 10.5909C16.0758 11.6679 16.5916 12.5464 17.3885 13.0421Z" fill="currentColor"/>
</svg>
