<svg width="24" height="24" viewBox="0 0 24 24" fill="none" xmlns="http://www.w3.org/2000/svg">
<path fill-rule="evenodd" clip-rule="evenodd" d="M8.15311 14.1023C7.98986 14.0761 7.82826 14.0494 7.66925 14.0225C5.79411 13.7056 4 14.9975 4 16.7626V21H20V16.7626C20 14.9975 18.2059 13.7056 16.3308 14.0225C16.1718 14.0494 16.0102 14.0761 15.8469 14.1023C14.4927 14.3199 13.0259 14.5061 12 14.5062C12 14.5062 12 14.5062 12 14.5062C10.9742 14.5062 9.50738 14.3199 8.15311 14.1023ZM8.8335 12.1847C9.73642 12.7495 10.8207 13.066 12 13.066C12 13.066 12 13.066 12 13.066C13.1793 13.066 14.2636 12.7495 15.1666 12.1846C16.7522 11.1926 17.7786 9.43447 17.7786 7.27901C17.7786 4.37023 15.1989 2 12 2C8.80118 2 6.22141 4.37023 6.22141 7.27901C6.22141 9.43448 7.24784 11.1926 8.8335 12.1847ZM18 19V16.7626C18 16.5996 17.9251 16.4012 17.6809 16.221C17.4291 16.0351 17.0596 15.9277 16.6641 15.9945C15.186 16.2444 13.3348 16.5062 12 16.5062C10.6652 16.5062 8.81397 16.2444 7.33593 15.9945C6.94043 15.9277 6.57088 16.0351 6.31907 16.221C6.07491 16.4012 6 16.5996 6 16.7626V19H18ZM12 4C9.73515 4 8.22141 5.63801 8.22141 7.27901C8.22141 9.53097 9.82766 11.066 12 11.066C14.1724 11.066 15.7786 9.53097 15.7786 7.27901C15.7786 5.63801 14.2649 4 12 4Z" fill="currentColor"/>
</svg>
