<svg width="24" height="24" viewBox="0 0 24 24" fill="none" xmlns="http://www.w3.org/2000/svg">
<path d="M6 4.30263C6 4.14227 6.13264 4 6.3125 4H17.6875C17.8674 4 18 4.14227 18 4.30263V10.1406L20 7.6875V4.30263C20 2.97891 18.9122 2 17.6875 2H6.3125C5.08779 2 4 2.97892 4 4.30263V19.6974C4 21.0211 5.08779 22 6.3125 22H17.6875C18.9122 22 20 21.0211 20 19.6974V17.5L18.2031 19.5469C18.1206 19.6395 18.0583 19.7145 18.0082 19.7747C17.8639 19.9483 17.821 20 17.6875 20H6.3125C6.13264 20 6 19.8577 6 19.6974V4.30263Z" fill="currentColor"/>
<path d="M16.4964 18.4291L22.7788 10.6272L21.2211 9.3728L16.2301 15.5709L14.0871 13.7397L12.7878 15.2602L16.4964 18.4291Z" fill="currentColor"/>
<path d="M16 8H8V6H16V8Z" fill="currentColor"/>
<path d="M8 12H16V10H8V12Z" fill="currentColor"/>
</svg>
