<svg width="24" height="24" viewBox="0 0 24 24" fill="none" xmlns="http://www.w3.org/2000/svg">
<path d="M12.8421 2.25937C12.7344 1.91354 12.2656 1.91354 12.1579 2.25937L11.7335 3.62235L10.3604 3.62241C10.0119 3.62242 9.86708 4.08774 10.1489 4.30149L11.2598 5.14391L10.8356 6.50692C10.7279 6.85276 11.1072 7.14034 11.389 6.92661L12.5 6.08428L13.611 6.92661C13.8928 7.14034 14.2721 6.85276 14.1644 6.50692L13.7402 5.14391L14.8511 4.30149C15.1329 4.08774 14.9881 3.62242 14.6396 3.62241L13.2665 3.62235L12.8421 2.25937Z" fill="currentColor"/>
<path fill-rule="evenodd" clip-rule="evenodd" d="M21 12H16V8H9V15H4V22H21V12ZM19 20H16V14H19V20ZM9 20V17H6V20H9ZM14 10V20H11V10H14Z" fill="currentColor"/>
</svg>
