<svg width="24" height="24" viewBox="0 0 24 24" fill="none" xmlns="http://www.w3.org/2000/svg">
<path d="M11 10C11.5523 10 12 10.4477 12 11V14.5C12 15.0523 11.5523 15.5 11 15.5C10.4477 15.5 10 15.0523 10 14.5L10 11C10 10.4477 10.4477 10 11 10Z" fill="currentColor"/>
<path d="M10 8C10 8.55228 10.4477 9 11 9C11.5523 9 12 8.55228 12 8V7.9C12 7.34772 11.5523 6.9 11 6.9C10.4477 6.9 10 7.34772 10 7.9V8Z" fill="currentColor"/>
<path fill-rule="evenodd" clip-rule="evenodd" d="M11 3C6.58172 3 3 6.58172 3 11C3 15.4183 6.58172 19 11 19C12.8487 19 14.551 18.3729 15.9056 17.3199L19.2928 20.7071C19.6834 21.0976 20.3165 21.0976 20.7071 20.7071C21.0976 20.3165 21.0976 19.6834 20.7071 19.2928L17.3199 15.9056C18.3729 14.551 19 12.8487 19 11C19 6.58172 15.4183 3 11 3ZM5 11C5 7.68629 7.68629 5 11 5C14.3137 5 17 7.68629 17 11C17 14.3137 14.3137 17 11 17C7.68629 17 5 14.3137 5 11Z" fill="currentColor"/>
</svg>
