<svg width="24" height="24" viewBox="0 0 24 24" fill="none" xmlns="http://www.w3.org/2000/svg">
<path fill-rule="evenodd" clip-rule="evenodd" d="M3.59089 16.4331L0.439453 18.7051L1.60906 20.3274L23.1091 4.82743L21.9395 3.20508L18.2289 5.88014C16.4889 4.80134 14.3548 4.01562 12.0244 4.01562C8.97006 4.01562 6.25303 5.36533 4.31835 6.95561C3.34709 7.75397 2.54612 8.63426 1.97969 9.47903C1.43652 10.2891 1.02441 11.1923 1.02441 12.0156C1.02441 12.8389 1.43652 13.7421 1.97969 14.5522C2.39766 15.1756 2.94333 15.8183 3.59089 16.4331ZM5.24714 15.2391L8.18014 13.1246C8.07874 12.7725 8.02441 12.4004 8.02441 12.0156C8.02441 9.80649 9.81528 8.01562 12.0244 8.01562C12.8658 8.01562 13.6466 8.27543 14.2908 8.71921L16.4477 7.16423C15.1233 6.47087 13.6122 6.01562 12.0244 6.01562C9.55592 6.01562 7.27295 7.11591 5.58834 8.50064C4.74996 9.18978 4.08646 9.92824 3.64084 10.5928C3.17196 11.2921 3.02441 11.7889 3.02441 12.0156C3.02441 12.2423 3.17196 12.7391 3.64084 13.4384C4.02417 14.0101 4.56873 14.6365 5.24714 15.2391ZM12.4343 10.0577C12.302 10.0301 12.1649 10.0156 12.0244 10.0156C10.9977 10.0156 10.1516 10.7893 10.0375 11.7856L12.4343 10.0577Z" fill="currentColor"/>
<path d="M12.0244 20.0156C10.0149 20.0156 8.15146 19.4314 6.56073 18.5788L8.40651 17.2482C9.52517 17.7224 10.7501 18.0156 12.0244 18.0156C14.4929 18.0156 16.7759 16.9153 18.4605 15.5306C19.2989 14.8415 19.9624 14.103 20.408 13.4384C20.8769 12.7391 21.0244 12.2423 21.0244 12.0156C21.0244 11.7889 20.8769 11.2921 20.408 10.5928C20.1398 10.1929 19.7928 9.76629 19.3763 9.33973L21.0138 8.15915C21.4222 8.59781 21.7769 9.04315 22.0691 9.47903C22.6123 10.2891 23.0244 11.1923 23.0244 12.0156C23.0244 12.8389 22.6123 13.7421 22.0691 14.5522C21.5027 15.397 20.7017 16.2773 19.7305 17.0756C17.7958 18.6659 15.0788 20.0156 12.0244 20.0156Z" fill="currentColor"/>
<path d="M10.5212 15.7236C10.9853 15.9119 11.4928 16.0156 12.0244 16.0156C14.2336 16.0156 16.0244 14.2248 16.0244 12.0156C16.0244 11.9304 16.0217 11.8458 16.0165 11.7619L10.5212 15.7236Z" fill="currentColor"/>
</svg>
