<svg width="24" height="24" viewBox="0 0 24 24" fill="none" xmlns="http://www.w3.org/2000/svg">
<path d="M13 7.5V4H11V7.5H13Z" fill="currentColor"/>
<path fill-rule="evenodd" clip-rule="evenodd" d="M19 16V17H5V16C5 12.134 8.13401 9 12 9C15.866 9 19 12.134 19 16ZM7.10002 15C7.56329 12.7178 9.58104 11 12 11C14.419 11 16.4367 12.7178 16.9 15H7.10002Z" fill="currentColor"/>
<path d="M24 17H20.5V15H24V17Z" fill="currentColor"/>
<path d="M0 17H3.5V15H0V17Z" fill="currentColor"/>
<path d="M21.7072 7.70718L19.2072 10.2072L17.793 8.79297L20.293 6.29297L21.7072 7.70718Z" fill="currentColor"/>
<path d="M3.79282 10.2072L1.29282 7.70718L2.70703 6.29297L5.20703 8.79297L3.79282 10.2072Z" fill="currentColor"/>
</svg>
