<svg width="24" height="24" viewBox="0 0 24 24" fill="none" xmlns="http://www.w3.org/2000/svg">
<path d="M15 17C16.1045 17 17 16.1045 17 15C17 13.8954 16.1045 13 15 13C13.8954 13 13 13.8954 13 15C13 16.1045 13.8954 17 15 17Z" fill="currentColor"/>
<path fill-rule="evenodd" clip-rule="evenodd" d="M11.379 2.18559C10.9884 1.79507 10.3553 1.79507 9.96474 2.18559L2.18657 9.96377C1.79605 10.3543 1.79605 10.9875 2.18657 11.378L11.7932 20.9846C12.0194 21.2108 12.3402 21.3151 12.6562 21.2652L19.3738 20.2046C19.802 20.137 20.1379 19.8011 20.2056 19.3728L21.2662 12.6553C21.3161 12.3392 21.2118 12.0184 20.9856 11.7922L11.379 2.18559ZM4.30789 10.6709L10.6719 4.30691L19.2113 12.8463L18.3435 18.3425L12.8473 19.2103L4.30789 10.6709Z" fill="currentColor"/>
</svg>
