<svg width="24" height="24" viewBox="0 0 24 24" fill="none" xmlns="http://www.w3.org/2000/svg">
<path d="M10 12C9.44772 12 9 12.4477 9 13C9 13.5523 9.44772 14 10 14H14C14.5523 14 15 13.5523 15 13C15 12.4477 14.5523 12 14 12H10Z" fill="currentColor"/>
<path fill-rule="evenodd" clip-rule="evenodd" d="M5 6C5 4.34315 6.34315 3 8 3H18C18.5523 3 19 3.44772 19 4C19 4.55228 18.5523 5 18 5H8C7.44772 5 7 5.44772 7 6C7 6.55228 7.44772 7 8 7H18C18.5523 7 19 7.44772 19 8V19.5C19 20.8807 17.8807 22 16.5 22H7.5C6.11929 22 5 20.8807 5 19.5V6ZM7 19.5V8.82929C7.31278 8.93985 7.64936 9 8 9H17V19.5C17 19.7761 16.7761 20 16.5 20H7.5C7.22386 20 7 19.7761 7 19.5Z" fill="currentColor"/>
</svg>
