<svg width="24" height="24" viewBox="0 0 24 24" fill="none" xmlns="http://www.w3.org/2000/svg">
<path fill-rule="evenodd" clip-rule="evenodd" d="M6 4C4.89543 4 4 4.89543 4 6V11.7574C4 12.8182 4.42143 13.8356 5.17157 14.5858L9.41421 18.8284C10.1644 19.5786 11.1818 20 12.2426 20H18C19.1046 20 20 19.1046 20 18V6C20 4.89543 19.1046 4 18 4H6ZM18 18V6H6V10C6 10.5523 6.44772 11 7 11H11C12.1046 11 13 11.8954 13 13V17C13 17.5523 13.4477 18 14 18H18ZM11.0631 17.6152C11.0218 17.4166 11 17.2108 11 17V13H7C6.78915 13 6.58339 12.9782 6.38482 12.9369C6.44528 13.0197 6.51239 13.0982 6.58579 13.1716L10.8284 17.4142C10.9018 17.4876 10.9803 17.5547 11.0631 17.6152Z" fill="currentColor"/>
</svg>
