<svg width="24" height="24" viewBox="0 0 24 24" fill="none" xmlns="http://www.w3.org/2000/svg">
<path fill-rule="evenodd" clip-rule="evenodd" d="M20.5 6.21094C20.5 5.65865 20.0523 5.21094 19.5 5.21094C19.438 5.21094 19.3773 5.21658 19.3184 5.22738C19.2305 5.22472 19.1407 5.23371 19.0511 5.25552L4.47652 8.80259C4.36929 8.82869 4.27034 8.87117 4.18169 8.92673C3.78547 9.05967 3.5 9.434 3.5 9.875V11.7521C3.41645 11.8273 3.33961 11.9135 3.27144 12.0109L0.73177 15.639C0.0358552 16.6332 0.747079 17.9992 1.96062 17.9992H7.03996C8.2535 17.9992 8.96473 16.6332 8.26881 15.639L5.72914 12.0109C5.66081 11.9133 5.58377 11.8269 5.5 11.7516V10.6119L11 9.27333V19H9C8.44772 19 8 19.4477 8 20C8 20.5523 8.44772 21 9 21H15C15.5523 21 16 20.5523 16 20C16 19.4477 15.5523 19 15 19H13V8.78658L18.5 7.44802V7.75211C18.4165 7.82726 18.3396 7.91352 18.2714 8.0109L15.7318 11.639C15.0359 12.6332 15.7471 13.9992 16.9606 13.9992H22.04C23.2535 13.9992 23.9647 12.6332 23.2688 11.639L20.7291 8.0109C20.6608 7.9133 20.5838 7.82686 20.5 7.75159V6.21094ZM19.5003 9.74299L17.9209 11.9992H21.0796L19.5003 9.74299ZM4.50029 13.743L2.92094 15.9992H6.07963L4.50029 13.743Z" fill="currentColor"/>
</svg>
