<svg width="24" height="24" viewBox="0 0 24 24" fill="none" xmlns="http://www.w3.org/2000/svg">
<path fill-rule="evenodd" clip-rule="evenodd" d="M15.9971 5.15261C15.999 5.10195 16 5.05107 16 5C16 2.79086 14.2091 1 12 1C9.79086 1 8 2.79086 8 5C8 5.05116 8.00097 5.10212 8.00288 5.15288C5.89823 6.48115 4.50022 8.82731 4.50022 11.5V14.1687C4.50022 14.5985 4.42291 15.0248 4.272 15.4272L3.57056 17.2978C3.08024 18.6053 4.0468 20 5.44322 20H18.5572C19.9536 20 20.9202 18.6053 20.4299 17.2978L19.7284 15.4272C19.5775 15.0248 19.5002 14.5985 19.5002 14.1687V11.5C19.5002 8.82713 18.102 6.48084 15.9971 5.15261ZM10.1541 4.22892C10.7446 4.07943 11.3632 4 12.0002 4C12.6371 4 13.2554 4.07939 13.8459 4.2288C13.544 3.50709 12.8312 3 12 3C11.1687 3 10.4559 3.50715 10.1541 4.22892ZM6.50022 11.5C6.50022 8.46243 8.96265 6 12.0002 6C15.0378 6 17.5002 8.46243 17.5002 11.5V14.1687C17.5002 14.8383 17.6207 15.5025 17.8558 16.1295L18.5572 18H5.44322L6.14466 16.1295C6.37978 15.5025 6.50022 14.8383 6.50022 14.1687V11.5Z" fill="currentColor"/>
<path d="M9 22C9 21.4477 9.44772 21 10 21H14C14.5523 21 15 21.4477 15 22C15 22.5523 14.5523 23 14 23H10C9.44772 23 9 22.5523 9 22Z" fill="currentColor"/>
</svg>
