<svg width="24" height="24" viewBox="0 0 24 24" fill="none" xmlns="http://www.w3.org/2000/svg">
<path d="M13.7656 2.86055L12.1868 1.63281L8.65702 6.1719L12.0262 10.8314L13.6469 9.65952L11.7241 7.00034H12C15.3137 7.00034 18 9.68663 18 13.0003C18 16.314 15.3137 19.0003 12 19.0003C8.68629 19.0003 6 16.314 6 13.0003C6 11.3652 6.65279 9.88445 7.71424 8.80125L6.28576 7.40145C4.87283 8.84333 4 10.8209 4 13.0003C4 17.4186 7.58172 21.0003 12 21.0003C16.4183 21.0003 20 17.4186 20 13.0003C20 8.61582 16.4728 5.05512 12.1011 5.00096L13.7656 2.86055Z" fill="currentColor"/>
</svg>
