<svg width="300" height="57" viewBox="0 0 300 57" fill="none" xmlns="http://www.w3.org/2000/svg">
<path d="M75.846 35.1493C75.846 36.4431 75.4412 37.4726 74.6454 38.2516C73.8497 39.0307 72.7608 39.4063 71.4066 39.4063H69.5918V44.6789H71.4066C73.5007 44.6789 75.3016 44.2755 76.8512 43.4547C78.3868 42.6339 79.5734 41.507 80.411 40.0323C81.2487 38.5716 81.6535 36.8604 81.6535 34.9267V13.252H75.86V35.1493H75.846Z" fill="#070E2C"/>
<path d="M103.695 22.7818C101.867 21.7384 99.8145 21.2236 97.5529 21.2236C95.2913 21.2236 93.2112 21.7523 91.3685 22.7818C89.5397 23.8252 88.0738 25.2442 86.9849 27.0388C85.896 28.8334 85.3516 30.8924 85.3516 33.2018C85.3516 35.5111 85.896 37.5562 86.9849 39.3647C88.0738 41.1594 89.5397 42.5784 91.3824 43.6218C93.2252 44.6652 95.2774 45.1799 97.5389 45.1799C99.8005 45.1799 101.797 44.6513 103.64 43.6218C105.468 42.5784 106.948 41.1594 108.037 39.3647C109.14 37.5701 109.684 35.5111 109.684 33.2018C109.684 30.8924 109.14 28.8056 108.051 27.0249C106.962 25.2442 105.51 23.8252 103.668 22.7818H103.695ZM103.081 36.7632C102.537 37.8205 101.783 38.6413 100.834 39.2395C99.8843 39.8238 98.7954 40.1299 97.5529 40.1299C96.3104 40.1299 95.1657 39.8377 94.2024 39.2395C93.2391 38.6413 92.4853 37.8205 91.9408 36.7632C91.3964 35.7059 91.1172 34.5234 91.1172 33.2018C91.1172 31.8801 91.3964 30.6698 91.9408 29.6403C92.4853 28.6108 93.2391 27.804 94.2024 27.1918C95.1657 26.5936 96.2825 26.2876 97.5529 26.2876C98.8233 26.2876 99.8843 26.5936 100.834 27.1918C101.783 27.804 102.523 28.6108 103.081 29.6403C103.626 30.6698 103.905 31.8523 103.905 33.2018C103.905 34.5512 103.626 35.7059 103.081 36.7632Z" fill="#070E2C"/>
<path d="M128.293 35.1913C128.293 36.2069 128.098 37.0833 127.707 37.8068C127.316 38.5302 126.757 39.1145 126.059 39.5179C125.361 39.9214 124.552 40.13 123.644 40.13C122.737 40.13 121.927 39.9214 121.215 39.5179C120.489 39.1145 119.945 38.5441 119.568 37.8346C119.191 37.1251 118.995 36.2764 118.995 35.3304V21.7246H113.453V35.7756C113.453 37.6537 113.802 39.3092 114.486 40.7143C115.184 42.1194 116.175 43.2185 117.488 44.0115C118.8 44.7905 120.35 45.194 122.122 45.194C123.756 45.194 125.194 44.8462 126.422 44.1367C127.344 43.608 128.07 42.8846 128.6 41.9664V44.6931H133.849V21.7246H128.307V35.1774L128.293 35.1913Z" fill="#070E2C"/>
<path d="M146.303 22.4894C145.424 23.0042 144.726 23.8389 144.209 24.9797V21.7243H139.002V44.6789H144.544V31.8939C144.544 30.1549 145.019 28.7915 145.982 27.8177C146.945 26.8439 148.216 26.3569 149.793 26.3569H151.776V21.46H150.421C148.816 21.46 147.434 21.7938 146.289 22.4755L146.303 22.4894Z" fill="#070E2C"/>
<path d="M171.068 22.3227C169.756 21.5853 168.248 21.2236 166.559 21.2236C164.87 21.2236 163.487 21.5853 162.259 22.2948C161.31 22.8513 160.57 23.6026 160.039 24.5625V21.7245H154.832V44.6791H160.374V31.2263C160.374 30.2107 160.57 29.3482 160.961 28.6108C161.352 27.8735 161.91 27.317 162.608 26.8997C163.306 26.4962 164.116 26.2876 165.023 26.2876C165.93 26.2876 166.768 26.4962 167.452 26.8997C168.136 27.3031 168.681 27.8735 169.086 28.6108C169.476 29.3482 169.672 30.2107 169.672 31.2263V44.6791H175.214V29.9186C175.214 28.2074 174.851 26.691 174.111 25.3833C173.371 24.0756 172.352 23.06 171.04 22.3227H171.068Z" fill="#070E2C"/>
<path d="M194.789 22.2531C193.351 21.5575 191.69 21.2236 189.791 21.2236C188.242 21.2236 186.804 21.474 185.478 21.9888C184.151 22.4896 183.007 23.1852 182.029 24.0756C181.052 24.9659 180.34 26.0093 179.893 27.2197L184.417 29.4177C184.835 28.3743 185.506 27.5396 186.427 26.9136C187.348 26.2736 188.395 25.9676 189.582 25.9676C190.852 25.9676 191.871 26.3015 192.653 26.9553C193.435 27.6092 193.812 28.4439 193.812 29.4177V30.1551L186.957 31.268C185.156 31.5463 183.649 32.0332 182.476 32.7009C181.289 33.3826 180.41 34.2173 179.852 35.2051C179.293 36.1928 179 37.3336 179 38.5996C179 39.8656 179.321 41.0759 179.977 42.0776C180.619 43.0792 181.541 43.8444 182.727 44.373C183.914 44.9017 185.31 45.1799 186.916 45.1799C188.186 45.1799 189.345 44.9991 190.392 44.6513C191.439 44.3035 192.374 43.7887 193.184 43.1349C193.519 42.8705 193.826 42.5506 194.119 42.2306V44.6791H199.368V29.4038C199.368 27.7761 198.963 26.3432 198.168 25.119C197.358 23.8947 196.241 22.9348 194.803 22.2531H194.789ZM193.072 38.1822C192.583 39.0587 191.885 39.7404 190.992 40.2273C190.098 40.7281 189.079 40.9646 187.921 40.9646C187.013 40.9646 186.259 40.7281 185.659 40.269C185.059 39.8099 184.752 39.1839 184.752 38.3909C184.752 37.5979 185.017 36.9162 185.561 36.4015C186.092 35.9007 186.916 35.539 188.018 35.3442L193.812 34.3704V35.3164C193.812 36.3598 193.561 37.3197 193.072 38.1822V38.1822Z" fill="#070E2C"/>
<path d="M210.021 12.7373H204.479V44.6651H210.021V12.7373Z" fill="#070E2C"/>
<path d="M224.971 37.5563L219.01 21.7246H213.035L222.151 44.6792L221.635 45.8896C221.188 46.8495 220.671 47.6146 220.085 48.2129C219.513 48.8111 218.577 49.1032 217.307 49.1032C216.86 49.1032 216.372 49.0615 215.841 48.978C215.311 48.8945 214.878 48.8111 214.501 48.7276V53.3602C214.976 53.5828 215.52 53.7498 216.106 53.8472C216.693 53.9445 217.307 54.0002 217.921 54.0002C219.359 54.0002 220.644 53.722 221.746 53.1794C222.863 52.6368 223.84 51.8439 224.692 50.8005C225.544 49.7571 226.256 48.4911 226.856 47.0025L236.893 21.7385H230.876L224.943 37.5703L224.971 37.5563Z" fill="#070E2C"/>
<path d="M252.572 40.0743C251.665 40.0743 250.925 39.9352 250.352 39.657C249.766 39.3787 249.347 38.9614 249.082 38.4327C248.817 37.9041 248.677 37.2502 248.677 36.485V26.6632H253.968V21.7245H248.677V16.4937H243.135V18.2605C243.135 19.3873 242.828 20.236 242.2 20.8342C241.571 21.4185 240.706 21.7245 239.575 21.7245H239.156V26.6632H243.135V36.7911C243.135 39.3787 243.847 41.382 245.271 42.801C246.695 44.2201 248.705 44.9296 251.302 44.9296C251.721 44.9296 252.195 44.9017 252.698 44.8461C253.2 44.7904 253.661 44.7348 254.052 44.6791V39.9491C253.801 39.9769 253.535 40.0047 253.27 40.0326C253.005 40.0604 252.768 40.0743 252.572 40.0743V40.0743Z" fill="#070E2C"/>
<path d="M263.822 21.7246H258.279V44.6653H263.822V21.7246Z" fill="#070E2C"/>
<path d="M263.822 13.252H258.279V19.1645H263.822V13.252Z" fill="#070E2C"/>
<path d="M283.507 39.0587C282.516 39.7682 281.357 40.116 280.031 40.116C278.817 40.116 277.742 39.8238 276.792 39.2256C275.843 38.6274 275.103 37.8205 274.573 36.7771C274.042 35.7337 273.763 34.5373 273.763 33.1878C273.763 31.8384 274.028 30.642 274.573 29.5986C275.103 28.5552 275.843 27.7483 276.792 27.1501C277.742 26.5658 278.817 26.2597 280.031 26.2597C281.33 26.2597 282.474 26.6075 283.479 27.317C284.485 28.0126 285.197 28.9447 285.615 30.0994L290.488 27.9848C290.041 26.6075 289.301 25.425 288.268 24.4234C287.235 23.4217 286.02 22.6426 284.61 22.0583C283.2 21.474 281.679 21.1958 280.045 21.1958C277.756 21.1958 275.704 21.7245 273.889 22.7539C272.074 23.7834 270.636 25.2163 269.589 27.011C268.542 28.8056 268.025 30.8507 268.025 33.1322C268.025 35.4138 268.542 37.4588 269.589 39.2673C270.636 41.0759 272.06 42.5088 273.889 43.5661C275.718 44.6234 277.756 45.1521 280.045 45.1521C281.707 45.1521 283.242 44.8599 284.652 44.2895C286.062 43.7192 287.277 42.9123 288.296 41.8828C289.315 40.8533 290.041 39.6986 290.501 38.4048L285.629 36.2067C285.211 37.3892 284.499 38.3353 283.507 39.0308V39.0587Z" fill="#070E2C"/>
<path d="M23.6201 12C27.8641 12 30.5591 13.071 32.0947 14.5039H32.1084C33.644 13.0572 36.3384 12 40.582 12H58.7031V47.1279H40.582C37.2177 47.128 34.2305 48.3106 32.667 49.8408C32.2621 50.2302 31.6196 50.2989 31.2148 49.8955C29.7908 48.4627 26.9704 47.1279 23.6201 47.1279H5.5V12H23.6201ZM8.85059 43.8027H23.6201C26.3703 43.8027 28.6879 44.2759 30.4189 45.1523V18.1348C30.4185 16.7437 28.087 15.3389 23.6201 15.3389H8.85059V43.8027ZM36.0596 39.5732H52.9229V36.582H36.0596V39.5732ZM25.6182 35.9844V39.3232H12.5234V35.9844H25.6182ZM45.9287 21.7383L48.5254 23.0186L45.8037 28.708H45.7891L41.127 25.1748L35.5703 33.0068L38.0693 34.6621L41.6992 29.4873L46.7109 33.5498L51.2061 24.3398L54.04 25.7451L53.2861 17.1055L45.9287 21.7383ZM25.6182 31.5596H12.5234V28.2217H25.6182V31.5596ZM25.6182 23.7969H12.5234V20.459H25.6182V23.7969Z" fill="#070E2C"/>
</svg>
